<svg width="179" height="151" viewBox="0 0 179 151" fill="none" xmlns="http://www.w3.org/2000/svg">
<mask id="mask0_192_33" style="mask-type:luminance" maskUnits="userSpaceOnUse" x="69" y="41" width="41" height="110">
<path d="M69.1719 41.8646H109.969V151H69.1719V41.8646Z" fill="white"/>
</mask>
<g mask="url(#mask0_192_33)">
<path d="M88.5573 46.625L89.625 45.5573L90.6927 46.625C97.2188 53.1562 97.2188 63.7813 90.6927 70.3073L89.625 71.375L88.5573 70.3073C82.0261 63.7813 82.0261 53.1562 88.5573 46.625ZM105.932 74.9583C108.568 71.4271 109.964 67.224 109.964 62.8021C109.964 61.9844 109.297 61.3229 108.479 61.3229C104.49 61.3229 100.76 62.4792 97.6146 64.474C99.7813 57.6719 98.1719 49.9219 92.7865 44.5313L90.6719 42.4167C90.3959 42.1406 90.0157 41.9844 89.625 41.9844C89.2292 41.9844 88.8542 42.1406 88.5782 42.4167L86.4636 44.5313C81.0834 49.9167 79.4688 57.6562 81.625 64.4583C78.4063 62.4167 74.6719 61.3229 70.7657 61.3229C69.948 61.3229 69.2865 61.9844 69.2865 62.8021C69.2865 67.224 70.6823 71.4271 73.3177 74.9583C75.8646 78.3698 79.4948 80.9479 83.5365 82.2135C84.3177 82.4583 85.1511 82.026 85.3907 81.2448C85.6355 80.4635 85.2032 79.6354 84.4219 79.3906C77.6355 77.2656 72.9271 71.3333 72.3177 64.3542C81.1719 65.1406 88.1459 72.599 88.1459 81.6615V149.729C88.1459 150.547 88.8073 151.208 89.625 151.208C90.4427 151.208 91.1042 150.547 91.1042 149.729V81.6615C91.1042 77.0208 92.9115 72.6563 96.1927 69.375C99.1094 66.4583 102.875 64.7083 106.932 64.3542C106.323 71.3333 101.609 77.2604 94.8282 79.3906C94.0469 79.6354 93.6094 80.4635 93.8542 81.2448C94.099 82.026 94.9323 82.4583 95.7136 82.2135C99.7552 80.9479 103.385 78.3698 105.932 74.9583Z" fill="#31B052"/>
</g>
<path d="M133.146 46.1406C127.495 40.4896 120.911 36.0521 113.583 32.9531C105.995 29.7396 97.9323 28.1146 89.625 28.1146C81.3177 28.1146 73.2552 29.7396 65.6667 32.9531C58.3385 36.0521 51.7552 40.4896 46.1042 46.1406C40.4531 51.7916 36.0156 58.375 32.9167 65.7031C29.7031 73.2916 28.0781 81.3541 28.0781 89.6614C28.0781 97 29.3594 104.182 31.8802 111.005C34.3177 117.599 37.849 123.687 42.375 129.104C51.4792 140 64.1302 147.458 78 150.109C78.4323 150.193 78.8802 150.078 79.2188 149.797C79.5573 149.516 79.7552 149.099 79.7552 148.656V102.099C79.7552 96.6666 77.6406 91.5573 73.8021 87.7187C69.9583 83.875 64.8542 81.7604 59.4219 81.7604C58.599 81.7604 57.9375 82.4219 57.9375 83.2396C57.9375 87.6614 59.3333 91.8646 61.9688 95.3958C64.5156 98.8073 68.1458 101.385 72.1875 102.651C72.9687 102.896 73.8021 102.464 74.0417 101.682C74.2865 100.901 73.8542 100.073 73.0729 99.8281C66.2917 97.6979 61.5781 91.7708 60.9688 84.7916C69.8281 85.5781 76.7969 93.0416 76.7969 102.099V116.432C72.8021 109.307 65.1719 104.479 56.4375 104.479C55.6198 104.479 54.9583 105.141 54.9583 105.958C54.9583 111.021 56.5573 115.844 59.5781 119.891C62.5 123.802 66.6615 126.76 71.2969 128.214C72.0781 128.458 72.9063 128.021 73.151 127.24C73.3958 126.464 72.9635 125.63 72.1823 125.385C64.1458 122.87 58.5885 115.792 57.9792 107.495C68.4844 108.286 76.7969 117.089 76.7969 127.792V146.839C50.1771 140.901 31.0417 117.135 31.0417 89.6614C31.0417 57.3594 57.3177 31.0781 89.625 31.0781C121.927 31.0781 148.208 57.3594 148.208 89.6614C148.208 117.135 129.073 140.901 102.453 146.839V127.792C102.453 117.089 110.766 108.286 121.271 107.495C120.656 115.792 115.104 122.87 107.068 125.385C106.286 125.63 105.854 126.464 106.094 127.24C106.339 128.021 107.172 128.458 107.953 128.214C112.589 126.76 116.75 123.802 119.672 119.891C122.693 115.844 124.292 111.026 124.292 105.958C124.292 105.141 123.625 104.479 122.807 104.479C114.073 104.479 106.448 109.307 102.453 116.432V102.099C102.453 97.4583 104.26 93.0937 107.542 89.8125C110.458 86.8958 114.224 85.1458 118.281 84.7916C117.672 91.7708 112.958 97.6979 106.172 99.8281C105.396 100.073 104.958 100.901 105.203 101.682C105.448 102.464 106.281 102.896 107.057 102.651C111.104 101.385 114.734 98.8073 117.281 95.3958C119.917 91.8646 121.307 87.6614 121.307 83.2396C121.307 82.4219 120.646 81.7604 119.828 81.7604C108.615 81.7604 99.4896 90.8854 99.4896 102.099V148.656C99.4896 149.099 99.6875 149.516 100.031 149.797C100.297 150.016 100.63 150.135 100.974 150.135C101.068 150.135 101.156 150.13 101.25 150.109C115.115 147.458 127.766 140 136.875 129.104C141.401 123.687 144.932 117.599 147.37 111.005C149.891 104.182 151.172 97 151.172 89.6614C151.172 81.3541 149.542 73.2916 146.333 65.7031C143.234 58.375 138.797 51.7916 133.146 46.1406Z" fill="#31B052"/>
<mask id="mask1_192_33" style="mask-type:luminance" maskUnits="userSpaceOnUse" x="87" y="0" width="5" height="24">
<path d="M87.6301 0H91.6301V23.9219H87.6301V0Z" fill="white"/>
</mask>
<g mask="url(#mask1_192_33)">
<path d="M89.6249 22.9114C90.4426 22.9114 91.1041 22.25 91.1041 21.4323V1.5156C91.1041 0.697897 90.4426 0.036438 89.6249 0.036438C88.8072 0.036438 88.1458 0.697897 88.1458 1.5156V21.4323C88.1458 22.25 88.8072 22.9114 89.6249 22.9114Z" fill="#31B052"/>
</g>
<path d="M62.1459 27.1927C62.3803 27.7604 62.9323 28.1042 63.5157 28.1042C63.7032 28.1042 63.8959 28.0677 64.0782 27.9896C64.8334 27.6771 65.1928 26.8125 64.8803 26.0573L60.3855 15.2031C60.073 14.4479 59.2084 14.0885 58.4532 14.401C57.698 14.7135 57.3386 15.5833 57.6511 16.3385L62.1459 27.1927Z" fill="#31B052"/>
<path d="M27.1509 62.1823L16.302 57.6875C15.5468 57.375 14.677 57.7343 14.3645 58.4895C14.052 59.2448 14.4113 60.1093 15.1666 60.4218L26.0207 64.9166C26.203 64.9948 26.3957 65.0312 26.5884 65.0312C27.1666 65.0312 27.7186 64.6875 27.953 64.1145C28.2655 63.3593 27.9061 62.4948 27.1509 62.1823Z" fill="#31B052"/>
<path d="M26.0207 114.406L15.1666 118.901C14.4113 119.214 14.052 120.078 14.3645 120.833C14.6041 121.406 15.1509 121.75 15.7343 121.75C15.9218 121.75 16.1145 121.714 16.302 121.635L27.1509 117.141C27.9061 116.828 28.2655 115.958 27.953 115.203C27.6405 114.448 26.7759 114.094 26.0207 114.406Z" fill="#31B052"/>
<path d="M40.328 136.859L32.0259 145.167C31.4478 145.745 31.4478 146.682 32.0259 147.26C32.3123 147.552 32.6925 147.693 33.0728 147.693C33.4478 147.693 33.828 147.552 34.1196 147.26L42.4217 138.953C43.005 138.375 43.005 137.438 42.4217 136.859C41.8436 136.281 40.9061 136.281 40.328 136.859Z" fill="#31B052"/>
<path d="M138.917 136.859C138.338 136.281 137.401 136.281 136.823 136.859C136.245 137.438 136.245 138.375 136.823 138.953L145.13 147.26C145.422 147.552 145.797 147.693 146.177 147.693C146.557 147.693 146.937 147.552 147.224 147.26C147.802 146.682 147.802 145.745 147.224 145.167L138.917 136.859Z" fill="#31B052"/>
<path d="M164.078 118.901L153.229 114.406C152.474 114.094 151.604 114.448 151.292 115.203C150.979 115.958 151.339 116.828 152.094 117.141L162.948 121.635C163.135 121.714 163.323 121.75 163.516 121.75C164.094 121.75 164.646 121.406 164.885 120.833C165.193 120.078 164.839 119.214 164.078 118.901Z" fill="#31B052"/>
<path d="M151.292 64.1145C151.531 64.6875 152.083 65.0312 152.662 65.0312C152.854 65.0312 153.042 64.9948 153.229 64.9166L164.078 60.4218C164.839 60.1093 165.193 59.2448 164.885 58.4895C164.568 57.7343 163.703 57.375 162.948 57.6875L152.094 62.1823C151.339 62.4948 150.979 63.3593 151.292 64.1145Z" fill="#31B052"/>
<path d="M115.167 27.9896C115.354 28.0677 115.547 28.1042 115.734 28.1042C116.318 28.1042 116.864 27.7604 117.104 27.1927L121.599 16.3385C121.911 15.5833 121.552 14.7135 120.797 14.401C120.042 14.0885 119.177 14.4479 118.864 15.2031L114.364 26.0573C114.052 26.8125 114.411 27.6771 115.167 27.9896Z" fill="#31B052"/>
<mask id="mask2_192_33" style="mask-type:luminance" maskUnits="userSpaceOnUse" x="156" y="88" width="23" height="4">
<path d="M156.234 88.1302H179V91.2344H156.234V88.1302Z" fill="white"/>
</mask>
<g mask="url(#mask2_192_33)">
<path d="M177.771 88.1823H157.854C157.036 88.1823 156.375 88.8437 156.375 89.6614C156.375 90.4791 157.036 91.1406 157.854 91.1406H177.771C178.589 91.1406 179.25 90.4791 179.25 89.6614C179.25 88.8437 178.589 88.1823 177.771 88.1823Z" fill="#31B052"/>
</g>
<mask id="mask3_192_33" style="mask-type:luminance" maskUnits="userSpaceOnUse" x="0" y="87" width="24" height="5">
<path d="M0 87.9218H23.6302V91.9218H0V87.9218Z" fill="white"/>
</mask>
<g mask="url(#mask3_192_33)">
<path d="M22.875 89.6614C22.875 88.8437 22.2083 88.1823 21.3906 88.1823H1.47917C0.661459 88.1823 0 88.8437 0 89.6614C0 90.4791 0.661459 91.1406 1.47917 91.1406H21.3906C22.2083 91.1406 22.875 90.4791 22.875 89.6614Z" fill="#31B052"/>
</g>
<path d="M137.87 42.8958C138.25 42.8958 138.63 42.75 138.917 42.4635L153 28.3802C153.578 27.8021 153.578 26.8646 153 26.2864C152.422 25.7083 151.484 25.7083 150.906 26.2864L136.823 40.3698C136.245 40.9479 136.245 41.8854 136.823 42.4635C137.114 42.75 137.489 42.8958 137.87 42.8958Z" fill="#31B052"/>
<path d="M40.3281 42.4635C40.6198 42.75 41 42.8958 41.375 42.8958C41.7552 42.8958 42.1354 42.75 42.4219 42.4635C43.0052 41.8854 43.0052 40.9479 42.4219 40.3698L28.3438 26.2864C27.7656 25.7083 26.8281 25.7083 26.25 26.2864C25.6719 26.8646 25.6719 27.8021 26.25 28.3802L40.3281 42.4635Z" fill="#31B052"/>
</svg>
