<svg xmlns="http://www.w3.org/2000/svg" xmlns:xlink="http://www.w3.org/1999/xlink" width="500" zoomAndPan="magnify" viewBox="0 0 375 374.999991" height="500" preserveAspectRatio="xMidYMid meet" version="1.0"><defs><g/><clipPath id="ef976a8074"><path d="M 172.15625 105.457031 L 202.753906 105.457031 L 202.753906 187.308594 L 172.15625 187.308594 Z M 172.15625 105.457031 " clip-rule="nonzero"/></clipPath><clipPath id="255a134e25"><path d="M 186 74.058594 L 189 74.058594 L 189 92 L 186 92 Z M 186 74.058594 " clip-rule="nonzero"/></clipPath><clipPath id="b2cd1d21b3"><path d="M 237.453125 140.15625 L 254.527344 140.15625 L 254.527344 142.484375 L 237.453125 142.484375 Z M 237.453125 140.15625 " clip-rule="nonzero"/></clipPath><clipPath id="d8ffec58ec"><path d="M 120.277344 140 L 138 140 L 138 143 L 120.277344 143 Z M 120.277344 140 " clip-rule="nonzero"/></clipPath><clipPath id="848f9961cf"><path d="M 33.511719 263.183594 L 341.488281 263.183594 L 341.488281 296.933594 L 33.511719 296.933594 Z M 33.511719 263.183594 " clip-rule="nonzero"/></clipPath></defs><rect x="-37.5" width="450" fill="#ffffff" y="-37.499999" height="449.999989" fill-opacity="1"/><rect x="-37.5" width="450" fill="#ffffff" y="-37.499999" height="449.999989" fill-opacity="1"/><g fill="#4ba66a" fill-opacity="0.4"><g transform="translate(40.777154, 240.073324)"><g><path d="M 39.765625 -30.734375 L 31.640625 0 L 27.078125 0 L 21.46875 -19.5625 C 21.3125 -20.070312 21.15625 -20.628906 21 -21.234375 C 20.851562 -21.835938 20.703125 -22.4375 20.546875 -23.03125 C 20.398438 -23.625 20.273438 -24.160156 20.171875 -24.640625 C 20.078125 -25.117188 20.007812 -25.484375 19.96875 -25.734375 C 19.945312 -25.484375 19.890625 -25.125 19.796875 -24.65625 C 19.703125 -24.1875 19.59375 -23.65625 19.46875 -23.0625 C 19.34375 -22.476562 19.203125 -21.878906 19.046875 -21.265625 C 18.890625 -20.660156 18.738281 -20.082031 18.59375 -19.53125 L 13.09375 0 L 8.5625 0 L 0.484375 -30.734375 L 4.875 -30.734375 L 9.5625 -12.09375 C 9.71875 -11.476562 9.867188 -10.847656 10.015625 -10.203125 C 10.160156 -9.566406 10.296875 -8.929688 10.421875 -8.296875 C 10.554688 -7.660156 10.671875 -7.039062 10.765625 -6.4375 C 10.859375 -5.84375 10.945312 -5.28125 11.03125 -4.75 C 11.101562 -5.300781 11.195312 -5.882812 11.3125 -6.5 C 11.425781 -7.125 11.546875 -7.757812 11.671875 -8.40625 C 11.804688 -9.050781 11.953125 -9.6875 12.109375 -10.3125 C 12.265625 -10.945312 12.425781 -11.550781 12.59375 -12.125 L 17.859375 -30.734375 L 22.15625 -30.734375 L 27.609375 -12.03125 C 27.773438 -11.4375 27.9375 -10.816406 28.09375 -10.171875 C 28.257812 -9.523438 28.410156 -8.878906 28.546875 -8.234375 C 28.679688 -7.597656 28.800781 -6.984375 28.90625 -6.390625 C 29.007812 -5.804688 29.101562 -5.257812 29.1875 -4.75 C 29.28125 -5.445312 29.398438 -6.203125 29.546875 -7.015625 C 29.703125 -7.835938 29.875 -8.679688 30.0625 -9.546875 C 30.257812 -10.410156 30.457031 -11.265625 30.65625 -12.109375 L 35.34375 -30.734375 Z M 39.765625 -30.734375 "/></g></g></g><g fill="#4ba66a" fill-opacity="0.4"><g transform="translate(83.151225, 240.073324)"><g><path d="M 31.09375 -15.40625 C 31.09375 -13.039062 30.789062 -10.882812 30.1875 -8.9375 C 29.59375 -7 28.703125 -5.332031 27.515625 -3.9375 C 26.328125 -2.539062 24.847656 -1.460938 23.078125 -0.703125 C 21.304688 0.046875 19.234375 0.421875 16.859375 0.421875 C 14.453125 0.421875 12.351562 0.046875 10.5625 -0.703125 C 8.78125 -1.460938 7.300781 -2.546875 6.125 -3.953125 C 4.945312 -5.359375 4.066406 -7.035156 3.484375 -8.984375 C 2.898438 -10.929688 2.609375 -13.085938 2.609375 -15.453125 C 2.609375 -18.609375 3.125 -21.367188 4.15625 -23.734375 C 5.195312 -26.109375 6.78125 -27.945312 8.90625 -29.25 C 11.03125 -30.5625 13.703125 -31.21875 16.921875 -31.21875 C 20.035156 -31.21875 22.644531 -30.566406 24.75 -29.265625 C 26.851562 -27.960938 28.4375 -26.128906 29.5 -23.765625 C 30.5625 -21.410156 31.09375 -18.625 31.09375 -15.40625 Z M 7.125 -15.40625 C 7.125 -12.914062 7.46875 -10.757812 8.15625 -8.9375 C 8.851562 -7.125 9.921875 -5.722656 11.359375 -4.734375 C 12.796875 -3.753906 14.628906 -3.265625 16.859375 -3.265625 C 19.117188 -3.265625 20.960938 -3.753906 22.390625 -4.734375 C 23.816406 -5.722656 24.867188 -7.125 25.546875 -8.9375 C 26.222656 -10.757812 26.5625 -12.914062 26.5625 -15.40625 C 26.5625 -19.195312 25.789062 -22.160156 24.25 -24.296875 C 22.707031 -26.429688 20.265625 -27.5 16.921875 -27.5 C 14.679688 -27.5 12.835938 -27.007812 11.390625 -26.03125 C 9.953125 -25.0625 8.878906 -23.675781 8.171875 -21.875 C 7.472656 -20.070312 7.125 -17.914062 7.125 -15.40625 Z M 7.125 -15.40625 "/></g></g></g><g fill="#4ba66a" fill-opacity="0.4"><g transform="translate(118.986564, 240.073324)"><g><path d="M 28.96875 0 L 23.796875 0 L 7.890625 -25.1875 L 7.71875 -25.1875 C 7.757812 -24.425781 7.804688 -23.59375 7.859375 -22.6875 C 7.921875 -21.789062 7.96875 -20.847656 8 -19.859375 C 8.03125 -18.867188 8.054688 -17.867188 8.078125 -16.859375 L 8.078125 0 L 4.125 0 L 4.125 -30.734375 L 9.25 -30.734375 L 25.109375 -5.671875 L 25.25 -5.671875 C 25.21875 -6.296875 25.179688 -7.0625 25.140625 -7.96875 C 25.097656 -8.875 25.0625 -9.835938 25.03125 -10.859375 C 25 -11.878906 24.984375 -12.84375 24.984375 -13.75 L 24.984375 -30.734375 L 28.96875 -30.734375 Z M 28.96875 0 "/></g></g></g><g fill="#4ba66a" fill-opacity="0.4"><g transform="translate(154.212181, 240.073324)"><g><path d="M 21.390625 0 L 4.125 0 L 4.125 -30.734375 L 21.390625 -30.734375 L 21.390625 -27.046875 L 8.4375 -27.046875 L 8.4375 -17.890625 L 20.609375 -17.890625 L 20.609375 -14.234375 L 8.4375 -14.234375 L 8.4375 -3.71875 L 21.390625 -3.71875 Z M 21.390625 0 "/></g></g></g><g fill="#4ba66a" fill-opacity="0.4"><g transform="translate(180.334033, 240.073324)"><g/></g></g><g fill="#4ba66a" fill-opacity="0.4"><g transform="translate(193.67277, 240.073324)"><g><path d="M 4.125 0 L 4.125 -30.734375 L 8.4375 -30.734375 L 8.4375 0 Z M 4.125 0 "/></g></g></g><g fill="#4ba66a" fill-opacity="0.4"><g transform="translate(208.420172, 240.073324)"><g><path d="M 28.96875 0 L 23.796875 0 L 7.890625 -25.1875 L 7.71875 -25.1875 C 7.757812 -24.425781 7.804688 -23.59375 7.859375 -22.6875 C 7.921875 -21.789062 7.96875 -20.847656 8 -19.859375 C 8.03125 -18.867188 8.054688 -17.867188 8.078125 -16.859375 L 8.078125 0 L 4.125 0 L 4.125 -30.734375 L 9.25 -30.734375 L 25.109375 -5.671875 L 25.25 -5.671875 C 25.21875 -6.296875 25.179688 -7.0625 25.140625 -7.96875 C 25.097656 -8.875 25.0625 -9.835938 25.03125 -10.859375 C 25 -11.878906 24.984375 -12.84375 24.984375 -13.75 L 24.984375 -30.734375 L 28.96875 -30.734375 Z M 28.96875 0 "/></g></g></g><g fill="#4ba66a" fill-opacity="0.4"><g transform="translate(243.645789, 240.073324)"><g><path d="M 28.96875 0 L 23.796875 0 L 7.890625 -25.1875 L 7.71875 -25.1875 C 7.757812 -24.425781 7.804688 -23.59375 7.859375 -22.6875 C 7.921875 -21.789062 7.96875 -20.847656 8 -19.859375 C 8.03125 -18.867188 8.054688 -17.867188 8.078125 -16.859375 L 8.078125 0 L 4.125 0 L 4.125 -30.734375 L 9.25 -30.734375 L 25.109375 -5.671875 L 25.25 -5.671875 C 25.21875 -6.296875 25.179688 -7.0625 25.140625 -7.96875 C 25.097656 -8.875 25.0625 -9.835938 25.03125 -10.859375 C 25 -11.878906 24.984375 -12.84375 24.984375 -13.75 L 24.984375 -30.734375 L 28.96875 -30.734375 Z M 28.96875 0 "/></g></g></g><g fill="#4ba66a" fill-opacity="0.4"><g transform="translate(278.871407, 240.073324)"><g><path d="M 31.09375 -15.40625 C 31.09375 -13.039062 30.789062 -10.882812 30.1875 -8.9375 C 29.59375 -7 28.703125 -5.332031 27.515625 -3.9375 C 26.328125 -2.539062 24.847656 -1.460938 23.078125 -0.703125 C 21.304688 0.046875 19.234375 0.421875 16.859375 0.421875 C 14.453125 0.421875 12.351562 0.046875 10.5625 -0.703125 C 8.78125 -1.460938 7.300781 -2.546875 6.125 -3.953125 C 4.945312 -5.359375 4.066406 -7.035156 3.484375 -8.984375 C 2.898438 -10.929688 2.609375 -13.085938 2.609375 -15.453125 C 2.609375 -18.609375 3.125 -21.367188 4.15625 -23.734375 C 5.195312 -26.109375 6.78125 -27.945312 8.90625 -29.25 C 11.03125 -30.5625 13.703125 -31.21875 16.921875 -31.21875 C 20.035156 -31.21875 22.644531 -30.566406 24.75 -29.265625 C 26.851562 -27.960938 28.4375 -26.128906 29.5 -23.765625 C 30.5625 -21.410156 31.09375 -18.625 31.09375 -15.40625 Z M 7.125 -15.40625 C 7.125 -12.914062 7.46875 -10.757812 8.15625 -8.9375 C 8.851562 -7.125 9.921875 -5.722656 11.359375 -4.734375 C 12.796875 -3.753906 14.628906 -3.265625 16.859375 -3.265625 C 19.117188 -3.265625 20.960938 -3.753906 22.390625 -4.734375 C 23.816406 -5.722656 24.867188 -7.125 25.546875 -8.9375 C 26.222656 -10.757812 26.5625 -12.914062 26.5625 -15.40625 C 26.5625 -19.195312 25.789062 -22.160156 24.25 -24.296875 C 22.707031 -26.429688 20.265625 -27.5 16.921875 -27.5 C 14.679688 -27.5 12.835938 -27.007812 11.390625 -26.03125 C 9.953125 -25.0625 8.878906 -23.675781 8.171875 -21.875 C 7.472656 -20.070312 7.125 -17.914062 7.125 -15.40625 Z M 7.125 -15.40625 "/></g></g></g><g fill="#4ba66a" fill-opacity="0.4"><g transform="translate(314.706745, 240.073324)"><g><path d="M 26.265625 -30.734375 L 15.375 0 L 10.890625 0 L 0 -30.734375 L 4.453125 -30.734375 L 11.296875 -10.96875 C 11.546875 -10.289062 11.78125 -9.566406 12 -8.796875 C 12.226562 -8.035156 12.441406 -7.273438 12.640625 -6.515625 C 12.835938 -5.765625 13 -5.070312 13.125 -4.4375 C 13.25 -5.070312 13.40625 -5.765625 13.59375 -6.515625 C 13.78125 -7.273438 13.992188 -8.039062 14.234375 -8.8125 C 14.472656 -9.59375 14.710938 -10.332031 14.953125 -11.03125 L 21.765625 -30.734375 Z M 26.265625 -30.734375 "/></g></g></g><g fill="#4ba66a" fill-opacity="1"><g transform="translate(37.389007, 236.685187)"><g><path d="M 39.765625 -30.734375 L 31.640625 0 L 27.078125 0 L 21.46875 -19.5625 C 21.3125 -20.070312 21.15625 -20.628906 21 -21.234375 C 20.851562 -21.835938 20.703125 -22.4375 20.546875 -23.03125 C 20.398438 -23.625 20.273438 -24.160156 20.171875 -24.640625 C 20.078125 -25.117188 20.007812 -25.484375 19.96875 -25.734375 C 19.945312 -25.484375 19.890625 -25.125 19.796875 -24.65625 C 19.703125 -24.1875 19.59375 -23.65625 19.46875 -23.0625 C 19.34375 -22.476562 19.203125 -21.878906 19.046875 -21.265625 C 18.890625 -20.660156 18.738281 -20.082031 18.59375 -19.53125 L 13.09375 0 L 8.5625 0 L 0.484375 -30.734375 L 4.875 -30.734375 L 9.5625 -12.09375 C 9.71875 -11.476562 9.867188 -10.847656 10.015625 -10.203125 C 10.160156 -9.566406 10.296875 -8.929688 10.421875 -8.296875 C 10.554688 -7.660156 10.671875 -7.039062 10.765625 -6.4375 C 10.859375 -5.84375 10.945312 -5.28125 11.03125 -4.75 C 11.101562 -5.300781 11.195312 -5.882812 11.3125 -6.5 C 11.425781 -7.125 11.546875 -7.757812 11.671875 -8.40625 C 11.804688 -9.050781 11.953125 -9.6875 12.109375 -10.3125 C 12.265625 -10.945312 12.425781 -11.550781 12.59375 -12.125 L 17.859375 -30.734375 L 22.15625 -30.734375 L 27.609375 -12.03125 C 27.773438 -11.4375 27.9375 -10.816406 28.09375 -10.171875 C 28.257812 -9.523438 28.410156 -8.878906 28.546875 -8.234375 C 28.679688 -7.597656 28.800781 -6.984375 28.90625 -6.390625 C 29.007812 -5.804688 29.101562 -5.257812 29.1875 -4.75 C 29.28125 -5.445312 29.398438 -6.203125 29.546875 -7.015625 C 29.703125 -7.835938 29.875 -8.679688 30.0625 -9.546875 C 30.257812 -10.410156 30.457031 -11.265625 30.65625 -12.109375 L 35.34375 -30.734375 Z M 39.765625 -30.734375 "/></g></g></g><g fill="#4ba66a" fill-opacity="1"><g transform="translate(79.763078, 236.685187)"><g><path d="M 31.09375 -15.40625 C 31.09375 -13.039062 30.789062 -10.882812 30.1875 -8.9375 C 29.59375 -7 28.703125 -5.332031 27.515625 -3.9375 C 26.328125 -2.539062 24.847656 -1.460938 23.078125 -0.703125 C 21.304688 0.046875 19.234375 0.421875 16.859375 0.421875 C 14.453125 0.421875 12.351562 0.046875 10.5625 -0.703125 C 8.78125 -1.460938 7.300781 -2.546875 6.125 -3.953125 C 4.945312 -5.359375 4.066406 -7.035156 3.484375 -8.984375 C 2.898438 -10.929688 2.609375 -13.085938 2.609375 -15.453125 C 2.609375 -18.609375 3.125 -21.367188 4.15625 -23.734375 C 5.195312 -26.109375 6.78125 -27.945312 8.90625 -29.25 C 11.03125 -30.5625 13.703125 -31.21875 16.921875 -31.21875 C 20.035156 -31.21875 22.644531 -30.566406 24.75 -29.265625 C 26.851562 -27.960938 28.4375 -26.128906 29.5 -23.765625 C 30.5625 -21.410156 31.09375 -18.625 31.09375 -15.40625 Z M 7.125 -15.40625 C 7.125 -12.914062 7.46875 -10.757812 8.15625 -8.9375 C 8.851562 -7.125 9.921875 -5.722656 11.359375 -4.734375 C 12.796875 -3.753906 14.628906 -3.265625 16.859375 -3.265625 C 19.117188 -3.265625 20.960938 -3.753906 22.390625 -4.734375 C 23.816406 -5.722656 24.867188 -7.125 25.546875 -8.9375 C 26.222656 -10.757812 26.5625 -12.914062 26.5625 -15.40625 C 26.5625 -19.195312 25.789062 -22.160156 24.25 -24.296875 C 22.707031 -26.429688 20.265625 -27.5 16.921875 -27.5 C 14.679688 -27.5 12.835938 -27.007812 11.390625 -26.03125 C 9.953125 -25.0625 8.878906 -23.675781 8.171875 -21.875 C 7.472656 -20.070312 7.125 -17.914062 7.125 -15.40625 Z M 7.125 -15.40625 "/></g></g></g><g fill="#4ba66a" fill-opacity="1"><g transform="translate(115.598417, 236.685187)"><g><path d="M 28.96875 0 L 23.796875 0 L 7.890625 -25.1875 L 7.71875 -25.1875 C 7.757812 -24.425781 7.804688 -23.59375 7.859375 -22.6875 C 7.921875 -21.789062 7.96875 -20.847656 8 -19.859375 C 8.03125 -18.867188 8.054688 -17.867188 8.078125 -16.859375 L 8.078125 0 L 4.125 0 L 4.125 -30.734375 L 9.25 -30.734375 L 25.109375 -5.671875 L 25.25 -5.671875 C 25.21875 -6.296875 25.179688 -7.0625 25.140625 -7.96875 C 25.097656 -8.875 25.0625 -9.835938 25.03125 -10.859375 C 25 -11.878906 24.984375 -12.84375 24.984375 -13.75 L 24.984375 -30.734375 L 28.96875 -30.734375 Z M 28.96875 0 "/></g></g></g><g fill="#4ba66a" fill-opacity="1"><g transform="translate(150.824034, 236.685187)"><g><path d="M 21.390625 0 L 4.125 0 L 4.125 -30.734375 L 21.390625 -30.734375 L 21.390625 -27.046875 L 8.4375 -27.046875 L 8.4375 -17.890625 L 20.609375 -17.890625 L 20.609375 -14.234375 L 8.4375 -14.234375 L 8.4375 -3.71875 L 21.390625 -3.71875 Z M 21.390625 0 "/></g></g></g><g fill="#4ba66a" fill-opacity="1"><g transform="translate(176.945886, 236.685187)"><g/></g></g><g fill="#4ba66a" fill-opacity="1"><g transform="translate(190.284623, 236.685187)"><g><path d="M 4.125 0 L 4.125 -30.734375 L 8.4375 -30.734375 L 8.4375 0 Z M 4.125 0 "/></g></g></g><g fill="#4ba66a" fill-opacity="1"><g transform="translate(205.032025, 236.685187)"><g><path d="M 28.96875 0 L 23.796875 0 L 7.890625 -25.1875 L 7.71875 -25.1875 C 7.757812 -24.425781 7.804688 -23.59375 7.859375 -22.6875 C 7.921875 -21.789062 7.96875 -20.847656 8 -19.859375 C 8.03125 -18.867188 8.054688 -17.867188 8.078125 -16.859375 L 8.078125 0 L 4.125 0 L 4.125 -30.734375 L 9.25 -30.734375 L 25.109375 -5.671875 L 25.25 -5.671875 C 25.21875 -6.296875 25.179688 -7.0625 25.140625 -7.96875 C 25.097656 -8.875 25.0625 -9.835938 25.03125 -10.859375 C 25 -11.878906 24.984375 -12.84375 24.984375 -13.75 L 24.984375 -30.734375 L 28.96875 -30.734375 Z M 28.96875 0 "/></g></g></g><g fill="#4ba66a" fill-opacity="1"><g transform="translate(240.257642, 236.685187)"><g><path d="M 28.96875 0 L 23.796875 0 L 7.890625 -25.1875 L 7.71875 -25.1875 C 7.757812 -24.425781 7.804688 -23.59375 7.859375 -22.6875 C 7.921875 -21.789062 7.96875 -20.847656 8 -19.859375 C 8.03125 -18.867188 8.054688 -17.867188 8.078125 -16.859375 L 8.078125 0 L 4.125 0 L 4.125 -30.734375 L 9.25 -30.734375 L 25.109375 -5.671875 L 25.25 -5.671875 C 25.21875 -6.296875 25.179688 -7.0625 25.140625 -7.96875 C 25.097656 -8.875 25.0625 -9.835938 25.03125 -10.859375 C 25 -11.878906 24.984375 -12.84375 24.984375 -13.75 L 24.984375 -30.734375 L 28.96875 -30.734375 Z M 28.96875 0 "/></g></g></g><g fill="#4ba66a" fill-opacity="1"><g transform="translate(275.48326, 236.685187)"><g><path d="M 31.09375 -15.40625 C 31.09375 -13.039062 30.789062 -10.882812 30.1875 -8.9375 C 29.59375 -7 28.703125 -5.332031 27.515625 -3.9375 C 26.328125 -2.539062 24.847656 -1.460938 23.078125 -0.703125 C 21.304688 0.046875 19.234375 0.421875 16.859375 0.421875 C 14.453125 0.421875 12.351562 0.046875 10.5625 -0.703125 C 8.78125 -1.460938 7.300781 -2.546875 6.125 -3.953125 C 4.945312 -5.359375 4.066406 -7.035156 3.484375 -8.984375 C 2.898438 -10.929688 2.609375 -13.085938 2.609375 -15.453125 C 2.609375 -18.609375 3.125 -21.367188 4.15625 -23.734375 C 5.195312 -26.109375 6.78125 -27.945312 8.90625 -29.25 C 11.03125 -30.5625 13.703125 -31.21875 16.921875 -31.21875 C 20.035156 -31.21875 22.644531 -30.566406 24.75 -29.265625 C 26.851562 -27.960938 28.4375 -26.128906 29.5 -23.765625 C 30.5625 -21.410156 31.09375 -18.625 31.09375 -15.40625 Z M 7.125 -15.40625 C 7.125 -12.914062 7.46875 -10.757812 8.15625 -8.9375 C 8.851562 -7.125 9.921875 -5.722656 11.359375 -4.734375 C 12.796875 -3.753906 14.628906 -3.265625 16.859375 -3.265625 C 19.117188 -3.265625 20.960938 -3.753906 22.390625 -4.734375 C 23.816406 -5.722656 24.867188 -7.125 25.546875 -8.9375 C 26.222656 -10.757812 26.5625 -12.914062 26.5625 -15.40625 C 26.5625 -19.195312 25.789062 -22.160156 24.25 -24.296875 C 22.707031 -26.429688 20.265625 -27.5 16.921875 -27.5 C 14.679688 -27.5 12.835938 -27.007812 11.390625 -26.03125 C 9.953125 -25.0625 8.878906 -23.675781 8.171875 -21.875 C 7.472656 -20.070312 7.125 -17.914062 7.125 -15.40625 Z M 7.125 -15.40625 "/></g></g></g><g fill="#4ba66a" fill-opacity="1"><g transform="translate(311.318599, 236.685187)"><g><path d="M 26.265625 -30.734375 L 15.375 0 L 10.890625 0 L 0 -30.734375 L 4.453125 -30.734375 L 11.296875 -10.96875 C 11.546875 -10.289062 11.78125 -9.566406 12 -8.796875 C 12.226562 -8.035156 12.441406 -7.273438 12.640625 -6.515625 C 12.835938 -5.765625 13 -5.070312 13.125 -4.4375 C 13.25 -5.070312 13.40625 -5.765625 13.59375 -6.515625 C 13.78125 -7.273438 13.992188 -8.039062 14.234375 -8.8125 C 14.472656 -9.59375 14.710938 -10.332031 14.953125 -11.03125 L 21.765625 -30.734375 Z M 26.265625 -30.734375 "/></g></g></g><g clip-path="url(#ef976a8074)"><path fill="#31b052" d="M 186.695312 109.027344 L 187.496094 108.226562 L 188.296875 109.027344 C 193.191406 113.925781 193.191406 121.894531 188.296875 126.789062 L 187.496094 127.589844 L 186.695312 126.789062 C 181.796875 121.894531 181.796875 113.925781 186.695312 109.027344 Z M 199.726562 130.277344 C 201.703125 127.628906 202.75 124.476562 202.75 121.160156 C 202.75 120.546875 202.25 120.050781 201.636719 120.050781 C 198.644531 120.050781 195.847656 120.917969 193.488281 122.414062 C 195.113281 117.3125 193.90625 111.5 189.867188 107.457031 L 188.28125 105.871094 C 188.074219 105.664062 187.789062 105.546875 187.496094 105.546875 C 187.199219 105.546875 186.917969 105.664062 186.710938 105.871094 L 185.125 107.457031 C 181.089844 111.496094 179.878906 117.300781 181.496094 122.402344 C 179.082031 120.871094 176.28125 120.050781 173.351562 120.050781 C 172.738281 120.050781 172.242188 120.546875 172.242188 121.160156 C 172.242188 124.476562 173.289062 127.628906 175.265625 130.277344 C 177.175781 132.835938 179.898438 134.769531 182.929688 135.71875 C 183.515625 135.902344 184.140625 135.578125 184.320312 134.992188 C 184.503906 134.40625 184.179688 133.785156 183.59375 133.601562 C 178.503906 132.007812 174.972656 127.558594 174.515625 122.324219 C 181.15625 122.914062 186.386719 128.507812 186.386719 135.304688 L 186.386719 186.355469 C 186.386719 186.96875 186.882812 187.464844 187.496094 187.464844 C 188.109375 187.464844 188.605469 186.96875 188.605469 186.355469 L 188.605469 135.304688 C 188.605469 131.824219 189.960938 128.550781 192.421875 126.089844 C 194.609375 123.902344 197.433594 122.589844 200.476562 122.324219 C 200.019531 127.558594 196.484375 132.003906 191.398438 133.601562 C 190.8125 133.785156 190.484375 134.40625 190.667969 134.992188 C 190.851562 135.578125 191.476562 135.902344 192.0625 135.71875 C 195.09375 134.769531 197.816406 132.835938 199.726562 130.277344 " fill-opacity="1" fill-rule="nonzero"/></g><path fill="#31b052" d="M 220.136719 108.664062 C 215.898438 104.425781 210.960938 101.097656 205.464844 98.773438 C 199.773438 96.363281 193.726562 95.144531 187.496094 95.144531 C 181.265625 95.144531 175.21875 96.363281 169.527344 98.773438 C 164.03125 101.097656 159.09375 104.425781 154.855469 108.664062 C 150.617188 112.902344 147.289062 117.839844 144.964844 123.335938 C 142.554688 129.027344 141.335938 135.074219 141.335938 141.304688 C 141.335938 146.808594 142.296875 152.195312 144.1875 157.3125 C 146.015625 162.257812 148.664062 166.824219 152.058594 170.886719 C 158.886719 179.058594 168.375 184.652344 178.777344 186.640625 C 179.101562 186.703125 179.4375 186.617188 179.691406 186.40625 C 179.945312 186.195312 180.09375 185.882812 180.09375 185.550781 L 180.09375 150.632812 C 180.09375 146.558594 178.507812 142.726562 175.628906 139.847656 C 172.746094 136.964844 168.917969 135.378906 164.84375 135.378906 C 164.226562 135.378906 163.730469 135.875 163.730469 136.488281 C 163.730469 139.804688 164.777344 142.957031 166.753906 145.605469 C 168.664062 148.164062 171.386719 150.097656 174.417969 151.046875 C 175.003906 151.230469 175.628906 150.90625 175.808594 150.320312 C 175.992188 149.734375 175.667969 149.113281 175.082031 148.929688 C 169.996094 147.332031 166.460938 142.886719 166.003906 137.652344 C 172.648438 138.242188 177.875 143.839844 177.875 150.632812 L 177.875 161.382812 C 174.878906 156.039062 169.15625 152.417969 162.605469 152.417969 C 161.992188 152.417969 161.496094 152.914062 161.496094 153.527344 C 161.496094 157.324219 162.695312 160.941406 164.960938 163.976562 C 167.152344 166.910156 170.273438 169.128906 173.75 170.21875 C 174.335938 170.402344 174.957031 170.074219 175.140625 169.488281 C 175.324219 168.90625 175 168.28125 174.414062 168.097656 C 168.386719 166.210938 164.21875 160.902344 163.761719 154.679688 C 171.640625 155.273438 177.875 161.875 177.875 169.902344 L 177.875 184.1875 C 157.910156 179.734375 143.558594 161.910156 143.558594 141.304688 C 143.558594 117.078125 163.265625 97.367188 187.496094 97.367188 C 211.722656 97.367188 231.433594 117.078125 231.433594 141.304688 C 231.433594 161.910156 217.082031 179.734375 197.117188 184.1875 L 197.117188 169.902344 C 197.117188 161.875 203.351562 155.273438 211.230469 154.679688 C 210.769531 160.902344 206.605469 166.210938 200.578125 168.097656 C 199.992188 168.28125 199.667969 168.90625 199.847656 169.488281 C 200.03125 170.074219 200.65625 170.402344 201.242188 170.21875 C 204.71875 169.128906 207.839844 166.910156 210.03125 163.976562 C 212.296875 160.941406 213.496094 157.328125 213.496094 153.527344 C 213.496094 152.914062 212.996094 152.417969 212.382812 152.417969 C 205.832031 152.417969 200.113281 156.039062 197.117188 161.382812 L 197.117188 150.632812 C 197.117188 147.152344 198.472656 143.878906 200.933594 141.417969 C 203.121094 139.230469 205.945312 137.917969 208.988281 137.652344 C 208.53125 142.886719 204.996094 147.332031 199.90625 148.929688 C 199.324219 149.113281 198.996094 149.734375 199.179688 150.320312 C 199.363281 150.90625 199.988281 151.230469 200.570312 151.046875 C 203.605469 150.097656 206.328125 148.164062 208.238281 145.605469 C 210.214844 142.957031 211.257812 139.804688 211.257812 136.488281 C 211.257812 135.875 210.761719 135.378906 210.148438 135.378906 C 201.738281 135.378906 194.894531 142.222656 194.894531 150.632812 L 194.894531 185.550781 C 194.894531 185.882812 195.042969 186.195312 195.300781 186.40625 C 195.5 186.570312 195.75 186.660156 196.007812 186.660156 C 196.078125 186.660156 196.144531 186.65625 196.214844 186.640625 C 206.613281 184.652344 216.101562 179.058594 222.933594 170.886719 C 226.328125 166.824219 228.976562 162.257812 230.804688 157.3125 C 232.695312 152.195312 233.65625 146.808594 233.65625 141.304688 C 233.65625 135.074219 232.433594 129.027344 230.027344 123.335938 C 227.703125 117.839844 224.375 112.902344 220.136719 108.664062 " fill-opacity="1" fill-rule="nonzero"/><g clip-path="url(#255a134e25)"><path fill="#31b052" d="M 187.496094 91.242188 C 188.109375 91.242188 188.605469 90.746094 188.605469 90.132812 L 188.605469 75.195312 C 188.605469 74.582031 188.109375 74.085938 187.496094 74.085938 C 186.882812 74.085938 186.386719 74.582031 186.386719 75.195312 L 186.386719 90.132812 C 186.386719 90.746094 186.882812 91.242188 187.496094 91.242188 " fill-opacity="1" fill-rule="nonzero"/></g><path fill="#31b052" d="M 166.886719 94.453125 C 167.0625 94.878906 167.476562 95.136719 167.914062 95.136719 C 168.054688 95.136719 168.199219 95.109375 168.335938 95.050781 C 168.902344 94.816406 169.171875 94.167969 168.9375 93.601562 L 165.566406 85.460938 C 165.332031 84.894531 164.683594 84.625 164.117188 84.859375 C 163.550781 85.09375 163.28125 85.746094 163.515625 86.3125 L 166.886719 94.453125 " fill-opacity="1" fill-rule="nonzero"/><path fill="#31b052" d="M 140.640625 120.695312 L 132.503906 117.324219 C 131.9375 117.089844 131.285156 117.359375 131.050781 117.925781 C 130.816406 118.492188 131.085938 119.140625 131.652344 119.375 L 139.792969 122.746094 C 139.929688 122.804688 140.074219 122.832031 140.21875 122.832031 C 140.652344 122.832031 141.066406 122.574219 141.242188 122.144531 C 141.476562 121.578125 141.207031 120.929688 140.640625 120.695312 " fill-opacity="1" fill-rule="nonzero"/><path fill="#31b052" d="M 139.792969 159.863281 L 131.652344 163.234375 C 131.085938 163.46875 130.816406 164.117188 131.050781 164.683594 C 131.230469 165.113281 131.640625 165.371094 132.078125 165.371094 C 132.21875 165.371094 132.363281 165.34375 132.503906 165.285156 L 140.640625 161.914062 C 141.207031 161.679688 141.476562 161.027344 141.242188 160.460938 C 141.007812 159.894531 140.359375 159.628906 139.792969 159.863281 " fill-opacity="1" fill-rule="nonzero"/><path fill="#31b052" d="M 150.523438 176.703125 L 144.296875 182.933594 C 143.863281 183.367188 143.863281 184.070312 144.296875 184.503906 C 144.511719 184.722656 144.796875 184.828125 145.082031 184.828125 C 145.363281 184.828125 145.648438 184.722656 145.867188 184.503906 L 152.09375 178.273438 C 152.53125 177.839844 152.53125 177.136719 152.09375 176.703125 C 151.660156 176.269531 150.957031 176.269531 150.523438 176.703125 " fill-opacity="1" fill-rule="nonzero"/><path fill="#31b052" d="M 224.464844 176.703125 C 224.03125 176.269531 223.328125 176.269531 222.894531 176.703125 C 222.460938 177.136719 222.460938 177.839844 222.894531 178.273438 L 229.125 184.503906 C 229.34375 184.722656 229.625 184.828125 229.910156 184.828125 C 230.195312 184.828125 230.480469 184.722656 230.695312 184.503906 C 231.128906 184.070312 231.128906 183.367188 230.695312 182.933594 L 224.464844 176.703125 " fill-opacity="1" fill-rule="nonzero"/><path fill="#31b052" d="M 243.335938 163.234375 L 235.199219 159.863281 C 234.632812 159.628906 233.980469 159.894531 233.746094 160.460938 C 233.511719 161.027344 233.78125 161.679688 234.347656 161.914062 L 242.488281 165.285156 C 242.628906 165.34375 242.769531 165.371094 242.914062 165.371094 C 243.347656 165.371094 243.761719 165.113281 243.941406 164.683594 C 244.171875 164.117188 243.90625 163.46875 243.335938 163.234375 " fill-opacity="1" fill-rule="nonzero"/><path fill="#31b052" d="M 233.746094 122.144531 C 233.925781 122.574219 234.339844 122.832031 234.773438 122.832031 C 234.917969 122.832031 235.058594 122.804688 235.199219 122.746094 L 243.335938 119.375 C 243.90625 119.140625 244.171875 118.492188 243.941406 117.925781 C 243.703125 117.359375 243.054688 117.089844 242.488281 117.324219 L 234.347656 120.695312 C 233.78125 120.929688 233.511719 121.578125 233.746094 122.144531 " fill-opacity="1" fill-rule="nonzero"/><path fill="#31b052" d="M 206.652344 95.050781 C 206.792969 95.109375 206.9375 95.136719 207.078125 95.136719 C 207.515625 95.136719 207.925781 94.878906 208.105469 94.453125 L 211.476562 86.3125 C 211.710938 85.746094 211.441406 85.09375 210.875 84.859375 C 210.308594 84.625 209.660156 84.894531 209.425781 85.460938 L 206.050781 93.601562 C 205.816406 94.167969 206.085938 94.816406 206.652344 95.050781 " fill-opacity="1" fill-rule="nonzero"/><g clip-path="url(#b2cd1d21b3)"><path fill="#31b052" d="M 253.605469 140.195312 L 238.667969 140.195312 C 238.054688 140.195312 237.558594 140.691406 237.558594 141.304688 C 237.558594 141.917969 238.054688 142.414062 238.667969 142.414062 L 253.605469 142.414062 C 254.21875 142.414062 254.714844 141.917969 254.714844 141.304688 C 254.714844 140.691406 254.21875 140.195312 253.605469 140.195312 " fill-opacity="1" fill-rule="nonzero"/></g><g clip-path="url(#d8ffec58ec)"><path fill="#31b052" d="M 137.433594 141.304688 C 137.433594 140.691406 136.933594 140.195312 136.320312 140.195312 L 121.386719 140.195312 C 120.773438 140.195312 120.277344 140.691406 120.277344 141.304688 C 120.277344 141.917969 120.773438 142.414062 121.386719 142.414062 L 136.320312 142.414062 C 136.933594 142.414062 137.433594 141.917969 137.433594 141.304688 " fill-opacity="1" fill-rule="nonzero"/></g><path fill="#31b052" d="M 223.679688 106.230469 C 223.964844 106.230469 224.25 106.121094 224.464844 105.90625 L 235.027344 95.34375 C 235.460938 94.910156 235.460938 94.207031 235.027344 93.773438 C 234.59375 93.339844 233.890625 93.339844 233.457031 93.773438 L 222.894531 104.335938 C 222.460938 104.769531 222.460938 105.472656 222.894531 105.90625 C 223.113281 106.121094 223.394531 106.230469 223.679688 106.230469 " fill-opacity="1" fill-rule="nonzero"/><path fill="#31b052" d="M 150.523438 105.90625 C 150.742188 106.121094 151.027344 106.230469 151.308594 106.230469 C 151.59375 106.230469 151.878906 106.121094 152.09375 105.90625 C 152.53125 105.472656 152.53125 104.769531 152.09375 104.335938 L 141.535156 93.773438 C 141.101562 93.339844 140.398438 93.339844 139.964844 93.773438 C 139.53125 94.207031 139.53125 94.910156 139.964844 95.34375 L 150.523438 105.90625 " fill-opacity="1" fill-rule="nonzero"/><g clip-path="url(#848f9961cf)"><path fill="#31b052" d="M 33.511719 263.183594 L 341.484375 263.183594 L 341.484375 296.933594 L 33.511719 296.933594 Z M 33.511719 263.183594 " fill-opacity="1" fill-rule="nonzero"/></g><g fill="#ffffff" fill-opacity="1"><g transform="translate(54.563345, 285.627728)"><g><path d="M 1.46875 0 L 1.46875 -11.65625 L 3.9375 -11.65625 L 3.9375 0 Z M 1.46875 0 "/></g></g></g><g fill="#ffffff" fill-opacity="1"><g transform="translate(59.967975, 285.627728)"><g><path d="M 9.5 0 L 7.078125 0 L 7.078125 -5.203125 C 7.078125 -5.847656 6.960938 -6.332031 6.734375 -6.65625 C 6.503906 -6.976562 6.140625 -7.140625 5.640625 -7.140625 C 4.953125 -7.140625 4.457031 -6.910156 4.15625 -6.453125 C 3.851562 -5.992188 3.703125 -5.238281 3.703125 -4.1875 L 3.703125 0 L 1.28125 0 L 1.28125 -8.90625 L 3.140625 -8.90625 L 3.453125 -7.765625 L 3.59375 -7.765625 C 3.863281 -8.203125 4.234375 -8.53125 4.703125 -8.75 C 5.179688 -8.96875 5.726562 -9.078125 6.34375 -9.078125 C 7.375 -9.078125 8.15625 -8.796875 8.6875 -8.234375 C 9.226562 -7.679688 9.5 -6.875 9.5 -5.8125 Z M 9.5 0 "/></g></g></g><g fill="#ffffff" fill-opacity="1"><g transform="translate(70.697521, 285.627728)"><g><path d="M 9.5 0 L 7.078125 0 L 7.078125 -5.203125 C 7.078125 -5.847656 6.960938 -6.332031 6.734375 -6.65625 C 6.503906 -6.976562 6.140625 -7.140625 5.640625 -7.140625 C 4.953125 -7.140625 4.457031 -6.910156 4.15625 -6.453125 C 3.851562 -5.992188 3.703125 -5.238281 3.703125 -4.1875 L 3.703125 0 L 1.28125 0 L 1.28125 -8.90625 L 3.140625 -8.90625 L 3.453125 -7.765625 L 3.59375 -7.765625 C 3.863281 -8.203125 4.234375 -8.53125 4.703125 -8.75 C 5.179688 -8.96875 5.726562 -9.078125 6.34375 -9.078125 C 7.375 -9.078125 8.15625 -8.796875 8.6875 -8.234375 C 9.226562 -7.679688 9.5 -6.875 9.5 -5.8125 Z M 9.5 0 "/></g></g></g><g fill="#ffffff" fill-opacity="1"><g transform="translate(81.427067, 285.627728)"><g><path d="M 3.21875 -4.46875 C 3.21875 -3.59375 3.359375 -2.925781 3.640625 -2.46875 C 3.929688 -2.019531 4.40625 -1.796875 5.0625 -1.796875 C 5.707031 -1.796875 6.171875 -2.019531 6.453125 -2.46875 C 6.742188 -2.914062 6.890625 -3.582031 6.890625 -4.46875 C 6.890625 -5.351562 6.742188 -6.015625 6.453125 -6.453125 C 6.171875 -6.898438 5.703125 -7.125 5.046875 -7.125 C 4.398438 -7.125 3.929688 -6.898438 3.640625 -6.453125 C 3.359375 -6.015625 3.21875 -5.351562 3.21875 -4.46875 Z M 9.375 -4.46875 C 9.375 -3.019531 8.988281 -1.882812 8.21875 -1.0625 C 7.457031 -0.25 6.394531 0.15625 5.03125 0.15625 C 4.175781 0.15625 3.421875 -0.03125 2.765625 -0.40625 C 2.109375 -0.78125 1.601562 -1.316406 1.25 -2.015625 C 0.90625 -2.710938 0.734375 -3.53125 0.734375 -4.46875 C 0.734375 -5.925781 1.113281 -7.054688 1.875 -7.859375 C 2.632812 -8.671875 3.703125 -9.078125 5.078125 -9.078125 C 5.929688 -9.078125 6.6875 -8.890625 7.34375 -8.515625 C 8 -8.148438 8.5 -7.617188 8.84375 -6.921875 C 9.195312 -6.222656 9.375 -5.40625 9.375 -4.46875 Z M 9.375 -4.46875 "/></g></g></g><g fill="#ffffff" fill-opacity="1"><g transform="translate(91.534842, 285.627728)"><g><path d="M 3.390625 0 L 0 -8.90625 L 2.546875 -8.90625 L 4.265625 -3.828125 C 4.453125 -3.191406 4.570312 -2.585938 4.625 -2.015625 L 4.671875 -2.015625 C 4.703125 -2.523438 4.820312 -3.128906 5.03125 -3.828125 L 6.75 -8.90625 L 9.28125 -8.90625 L 5.890625 0 Z M 3.390625 0 "/></g></g></g><g fill="#ffffff" fill-opacity="1"><g transform="translate(100.821559, 285.627728)"><g><path d="M 6.9375 0 L 6.46875 -1.21875 L 6.40625 -1.21875 C 5.988281 -0.695312 5.5625 -0.335938 5.125 -0.140625 C 4.695312 0.0546875 4.132812 0.15625 3.4375 0.15625 C 2.582031 0.15625 1.910156 -0.0859375 1.421875 -0.578125 C 0.929688 -1.066406 0.6875 -1.757812 0.6875 -2.65625 C 0.6875 -3.601562 1.015625 -4.300781 1.671875 -4.75 C 2.335938 -5.195312 3.335938 -5.445312 4.671875 -5.5 L 6.21875 -5.546875 L 6.21875 -5.9375 C 6.21875 -6.84375 5.753906 -7.296875 4.828125 -7.296875 C 4.117188 -7.296875 3.28125 -7.082031 2.3125 -6.65625 L 1.515625 -8.296875 C 2.535156 -8.828125 3.671875 -9.09375 4.921875 -9.09375 C 6.117188 -9.09375 7.035156 -8.832031 7.671875 -8.3125 C 8.316406 -7.789062 8.640625 -7 8.640625 -5.9375 L 8.640625 0 Z M 6.21875 -4.125 L 5.28125 -4.09375 C 4.570312 -4.070312 4.046875 -3.941406 3.703125 -3.703125 C 3.359375 -3.472656 3.1875 -3.117188 3.1875 -2.640625 C 3.1875 -1.960938 3.578125 -1.625 4.359375 -1.625 C 4.921875 -1.625 5.367188 -1.785156 5.703125 -2.109375 C 6.046875 -2.429688 6.21875 -2.859375 6.21875 -3.390625 Z M 6.21875 -4.125 "/></g></g></g><g fill="#ffffff" fill-opacity="1"><g transform="translate(110.682219, 285.627728)"><g><path d="M 5.03125 -1.78125 C 5.457031 -1.78125 5.96875 -1.875 6.5625 -2.0625 L 6.5625 -0.25 C 5.957031 0.0195312 5.210938 0.15625 4.328125 0.15625 C 3.359375 0.15625 2.648438 -0.0859375 2.203125 -0.578125 C 1.753906 -1.066406 1.53125 -1.804688 1.53125 -2.796875 L 1.53125 -7.09375 L 0.375 -7.09375 L 0.375 -8.109375 L 1.71875 -8.921875 L 2.421875 -10.8125 L 3.96875 -10.8125 L 3.96875 -8.90625 L 6.46875 -8.90625 L 6.46875 -7.09375 L 3.96875 -7.09375 L 3.96875 -2.796875 C 3.96875 -2.441406 4.0625 -2.179688 4.25 -2.015625 C 4.445312 -1.859375 4.707031 -1.78125 5.03125 -1.78125 Z M 5.03125 -1.78125 "/></g></g></g><g fill="#ffffff" fill-opacity="1"><g transform="translate(117.768821, 285.627728)"><g><path d="M 1.171875 -11.21875 C 1.171875 -12.007812 1.613281 -12.40625 2.5 -12.40625 C 3.375 -12.40625 3.8125 -12.007812 3.8125 -11.21875 C 3.8125 -10.84375 3.703125 -10.546875 3.484375 -10.328125 C 3.265625 -10.117188 2.9375 -10.015625 2.5 -10.015625 C 1.613281 -10.015625 1.171875 -10.414062 1.171875 -11.21875 Z M 3.703125 0 L 1.28125 0 L 1.28125 -8.90625 L 3.703125 -8.90625 Z M 3.703125 0 "/></g></g></g><g fill="#ffffff" fill-opacity="1"><g transform="translate(122.750965, 285.627728)"><g><path d="M 3.21875 -4.46875 C 3.21875 -3.59375 3.359375 -2.925781 3.640625 -2.46875 C 3.929688 -2.019531 4.40625 -1.796875 5.0625 -1.796875 C 5.707031 -1.796875 6.171875 -2.019531 6.453125 -2.46875 C 6.742188 -2.914062 6.890625 -3.582031 6.890625 -4.46875 C 6.890625 -5.351562 6.742188 -6.015625 6.453125 -6.453125 C 6.171875 -6.898438 5.703125 -7.125 5.046875 -7.125 C 4.398438 -7.125 3.929688 -6.898438 3.640625 -6.453125 C 3.359375 -6.015625 3.21875 -5.351562 3.21875 -4.46875 Z M 9.375 -4.46875 C 9.375 -3.019531 8.988281 -1.882812 8.21875 -1.0625 C 7.457031 -0.25 6.394531 0.15625 5.03125 0.15625 C 4.175781 0.15625 3.421875 -0.03125 2.765625 -0.40625 C 2.109375 -0.78125 1.601562 -1.316406 1.25 -2.015625 C 0.90625 -2.710938 0.734375 -3.53125 0.734375 -4.46875 C 0.734375 -5.925781 1.113281 -7.054688 1.875 -7.859375 C 2.632812 -8.671875 3.703125 -9.078125 5.078125 -9.078125 C 5.929688 -9.078125 6.6875 -8.890625 7.34375 -8.515625 C 8 -8.148438 8.5 -7.617188 8.84375 -6.921875 C 9.195312 -6.222656 9.375 -5.40625 9.375 -4.46875 Z M 9.375 -4.46875 "/></g></g></g><g fill="#ffffff" fill-opacity="1"><g transform="translate(132.85874, 285.627728)"><g><path d="M 9.5 0 L 7.078125 0 L 7.078125 -5.203125 C 7.078125 -5.847656 6.960938 -6.332031 6.734375 -6.65625 C 6.503906 -6.976562 6.140625 -7.140625 5.640625 -7.140625 C 4.953125 -7.140625 4.457031 -6.910156 4.15625 -6.453125 C 3.851562 -5.992188 3.703125 -5.238281 3.703125 -4.1875 L 3.703125 0 L 1.28125 0 L 1.28125 -8.90625 L 3.140625 -8.90625 L 3.453125 -7.765625 L 3.59375 -7.765625 C 3.863281 -8.203125 4.234375 -8.53125 4.703125 -8.75 C 5.179688 -8.96875 5.726562 -9.078125 6.34375 -9.078125 C 7.375 -9.078125 8.15625 -8.796875 8.6875 -8.234375 C 9.226562 -7.679688 9.5 -6.875 9.5 -5.8125 Z M 9.5 0 "/></g></g></g><g fill="#ffffff" fill-opacity="1"><g transform="translate(143.588286, 285.627728)"><g/></g></g><g fill="#ffffff" fill-opacity="1"><g transform="translate(147.829087, 285.627728)"><g><path d="M 6.9375 0 L 6.46875 -1.21875 L 6.40625 -1.21875 C 5.988281 -0.695312 5.5625 -0.335938 5.125 -0.140625 C 4.695312 0.0546875 4.132812 0.15625 3.4375 0.15625 C 2.582031 0.15625 1.910156 -0.0859375 1.421875 -0.578125 C 0.929688 -1.066406 0.6875 -1.757812 0.6875 -2.65625 C 0.6875 -3.601562 1.015625 -4.300781 1.671875 -4.75 C 2.335938 -5.195312 3.335938 -5.445312 4.671875 -5.5 L 6.21875 -5.546875 L 6.21875 -5.9375 C 6.21875 -6.84375 5.753906 -7.296875 4.828125 -7.296875 C 4.117188 -7.296875 3.28125 -7.082031 2.3125 -6.65625 L 1.515625 -8.296875 C 2.535156 -8.828125 3.671875 -9.09375 4.921875 -9.09375 C 6.117188 -9.09375 7.035156 -8.832031 7.671875 -8.3125 C 8.316406 -7.789062 8.640625 -7 8.640625 -5.9375 L 8.640625 0 Z M 6.21875 -4.125 L 5.28125 -4.09375 C 4.570312 -4.070312 4.046875 -3.941406 3.703125 -3.703125 C 3.359375 -3.472656 3.1875 -3.117188 3.1875 -2.640625 C 3.1875 -1.960938 3.578125 -1.625 4.359375 -1.625 C 4.921875 -1.625 5.367188 -1.785156 5.703125 -2.109375 C 6.046875 -2.429688 6.21875 -2.859375 6.21875 -3.390625 Z M 6.21875 -4.125 "/></g></g></g><g fill="#ffffff" fill-opacity="1"><g transform="translate(157.689747, 285.627728)"><g><path d="M 9.03125 -8.90625 L 9.03125 -7.671875 L 7.640625 -7.3125 C 7.890625 -6.914062 8.015625 -6.472656 8.015625 -5.984375 C 8.015625 -5.023438 7.679688 -4.273438 7.015625 -3.734375 C 6.347656 -3.203125 5.421875 -2.9375 4.234375 -2.9375 L 3.796875 -2.96875 L 3.4375 -3 C 3.1875 -2.8125 3.0625 -2.601562 3.0625 -2.375 C 3.0625 -2.019531 3.507812 -1.84375 4.40625 -1.84375 L 5.921875 -1.84375 C 6.898438 -1.84375 7.644531 -1.628906 8.15625 -1.203125 C 8.664062 -0.785156 8.921875 -0.171875 8.921875 0.640625 C 8.921875 1.679688 8.488281 2.488281 7.625 3.0625 C 6.757812 3.632812 5.507812 3.921875 3.875 3.921875 C 2.632812 3.921875 1.6875 3.703125 1.03125 3.265625 C 0.375 2.835938 0.046875 2.234375 0.046875 1.453125 C 0.046875 0.910156 0.210938 0.457031 0.546875 0.09375 C 0.878906 -0.257812 1.375 -0.515625 2.03125 -0.671875 C 1.78125 -0.773438 1.5625 -0.945312 1.375 -1.1875 C 1.1875 -1.425781 1.09375 -1.6875 1.09375 -1.96875 C 1.09375 -2.300781 1.191406 -2.582031 1.390625 -2.8125 C 1.585938 -3.039062 1.867188 -3.257812 2.234375 -3.46875 C 1.765625 -3.675781 1.394531 -4.003906 1.125 -4.453125 C 0.851562 -4.898438 0.71875 -5.425781 0.71875 -6.03125 C 0.71875 -7 1.03125 -7.75 1.65625 -8.28125 C 2.289062 -8.8125 3.195312 -9.078125 4.375 -9.078125 C 4.625 -9.078125 4.921875 -9.054688 5.265625 -9.015625 C 5.609375 -8.972656 5.828125 -8.9375 5.921875 -8.90625 Z M 2.15625 1.265625 C 2.15625 1.597656 2.316406 1.859375 2.640625 2.046875 C 2.960938 2.242188 3.410156 2.34375 3.984375 2.34375 C 4.859375 2.34375 5.539062 2.222656 6.03125 1.984375 C 6.53125 1.742188 6.78125 1.414062 6.78125 1 C 6.78125 0.664062 6.632812 0.429688 6.34375 0.296875 C 6.050781 0.171875 5.597656 0.109375 4.984375 0.109375 L 3.71875 0.109375 C 3.269531 0.109375 2.894531 0.210938 2.59375 0.421875 C 2.300781 0.628906 2.15625 0.910156 2.15625 1.265625 Z M 3.03125 -6 C 3.03125 -5.507812 3.140625 -5.125 3.359375 -4.84375 C 3.585938 -4.5625 3.925781 -4.421875 4.375 -4.421875 C 4.832031 -4.421875 5.164062 -4.5625 5.375 -4.84375 C 5.59375 -5.125 5.703125 -5.507812 5.703125 -6 C 5.703125 -7.070312 5.257812 -7.609375 4.375 -7.609375 C 3.476562 -7.609375 3.03125 -7.070312 3.03125 -6 Z M 3.03125 -6 "/></g></g></g><g fill="#ffffff" fill-opacity="1"><g transform="translate(166.912693, 285.627728)"><g><path d="M 6.25 -9.078125 C 6.582031 -9.078125 6.859375 -9.054688 7.078125 -9.015625 L 6.890625 -6.734375 C 6.691406 -6.785156 6.453125 -6.8125 6.171875 -6.8125 C 5.390625 -6.8125 4.78125 -6.609375 4.34375 -6.203125 C 3.914062 -5.804688 3.703125 -5.25 3.703125 -4.53125 L 3.703125 0 L 1.28125 0 L 1.28125 -8.90625 L 3.125 -8.90625 L 3.46875 -7.421875 L 3.59375 -7.421875 C 3.875 -7.921875 4.25 -8.320312 4.71875 -8.625 C 5.1875 -8.925781 5.695312 -9.078125 6.25 -9.078125 Z M 6.25 -9.078125 "/></g></g></g><g fill="#ffffff" fill-opacity="1"><g transform="translate(174.326124, 285.627728)"><g><path d="M 1.171875 -11.21875 C 1.171875 -12.007812 1.613281 -12.40625 2.5 -12.40625 C 3.375 -12.40625 3.8125 -12.007812 3.8125 -11.21875 C 3.8125 -10.84375 3.703125 -10.546875 3.484375 -10.328125 C 3.265625 -10.117188 2.9375 -10.015625 2.5 -10.015625 C 1.613281 -10.015625 1.171875 -10.414062 1.171875 -11.21875 Z M 3.703125 0 L 1.28125 0 L 1.28125 -8.90625 L 3.703125 -8.90625 Z M 3.703125 0 "/></g></g></g><g fill="#ffffff" fill-opacity="1"><g transform="translate(179.308268, 285.627728)"><g><path d="M 4.890625 0.15625 C 2.117188 0.15625 0.734375 -1.363281 0.734375 -4.40625 C 0.734375 -5.925781 1.109375 -7.082031 1.859375 -7.875 C 2.617188 -8.675781 3.703125 -9.078125 5.109375 -9.078125 C 6.140625 -9.078125 7.066406 -8.875 7.890625 -8.46875 L 7.171875 -6.59375 C 6.785156 -6.75 6.425781 -6.875 6.09375 -6.96875 C 5.769531 -7.070312 5.441406 -7.125 5.109375 -7.125 C 3.847656 -7.125 3.21875 -6.222656 3.21875 -4.421875 C 3.21875 -2.679688 3.847656 -1.8125 5.109375 -1.8125 C 5.578125 -1.8125 6.007812 -1.875 6.40625 -2 C 6.8125 -2.125 7.210938 -2.316406 7.609375 -2.578125 L 7.609375 -0.5 C 7.210938 -0.25 6.8125 -0.078125 6.40625 0.015625 C 6.007812 0.109375 5.503906 0.15625 4.890625 0.15625 Z M 4.890625 0.15625 "/></g></g></g><g fill="#ffffff" fill-opacity="1"><g transform="translate(187.702185, 285.627728)"><g><path d="M 3.21875 -4.46875 C 3.21875 -3.59375 3.359375 -2.925781 3.640625 -2.46875 C 3.929688 -2.019531 4.40625 -1.796875 5.0625 -1.796875 C 5.707031 -1.796875 6.171875 -2.019531 6.453125 -2.46875 C 6.742188 -2.914062 6.890625 -3.582031 6.890625 -4.46875 C 6.890625 -5.351562 6.742188 -6.015625 6.453125 -6.453125 C 6.171875 -6.898438 5.703125 -7.125 5.046875 -7.125 C 4.398438 -7.125 3.929688 -6.898438 3.640625 -6.453125 C 3.359375 -6.015625 3.21875 -5.351562 3.21875 -4.46875 Z M 9.375 -4.46875 C 9.375 -3.019531 8.988281 -1.882812 8.21875 -1.0625 C 7.457031 -0.25 6.394531 0.15625 5.03125 0.15625 C 4.175781 0.15625 3.421875 -0.03125 2.765625 -0.40625 C 2.109375 -0.78125 1.601562 -1.316406 1.25 -2.015625 C 0.90625 -2.710938 0.734375 -3.53125 0.734375 -4.46875 C 0.734375 -5.925781 1.113281 -7.054688 1.875 -7.859375 C 2.632812 -8.671875 3.703125 -9.078125 5.078125 -9.078125 C 5.929688 -9.078125 6.6875 -8.890625 7.34375 -8.515625 C 8 -8.148438 8.5 -7.617188 8.84375 -6.921875 C 9.195312 -6.222656 9.375 -5.40625 9.375 -4.46875 Z M 9.375 -4.46875 "/></g></g></g><g fill="#ffffff" fill-opacity="1"><g transform="translate(197.809959, 285.627728)"><g><path d="M 3.703125 0 L 1.28125 0 L 1.28125 -12.40625 L 3.703125 -12.40625 Z M 3.703125 0 "/></g></g></g><g fill="#ffffff" fill-opacity="1"><g transform="translate(202.792104, 285.627728)"><g><path d="M 4.96875 -7.34375 C 4.445312 -7.34375 4.039062 -7.179688 3.75 -6.859375 C 3.457031 -6.535156 3.289062 -6.070312 3.25 -5.46875 L 6.671875 -5.46875 C 6.660156 -6.070312 6.5 -6.535156 6.1875 -6.859375 C 5.882812 -7.179688 5.476562 -7.34375 4.96875 -7.34375 Z M 5.3125 0.15625 C 3.875 0.15625 2.75 -0.238281 1.9375 -1.03125 C 1.132812 -1.820312 0.734375 -2.941406 0.734375 -4.390625 C 0.734375 -5.890625 1.101562 -7.046875 1.84375 -7.859375 C 2.59375 -8.671875 3.628906 -9.078125 4.953125 -9.078125 C 6.210938 -9.078125 7.191406 -8.71875 7.890625 -8 C 8.597656 -7.28125 8.953125 -6.289062 8.953125 -5.03125 L 8.953125 -3.84375 L 3.203125 -3.84375 C 3.222656 -3.15625 3.425781 -2.617188 3.8125 -2.234375 C 4.195312 -1.847656 4.734375 -1.65625 5.421875 -1.65625 C 5.960938 -1.65625 6.46875 -1.707031 6.9375 -1.8125 C 7.414062 -1.925781 7.914062 -2.109375 8.4375 -2.359375 L 8.4375 -0.46875 C 8.019531 -0.257812 7.566406 -0.101562 7.078125 0 C 6.597656 0.101562 6.007812 0.15625 5.3125 0.15625 Z M 5.3125 0.15625 "/></g></g></g><g fill="#ffffff" fill-opacity="1"><g transform="translate(212.437535, 285.627728)"><g/></g></g><g fill="#ffffff" fill-opacity="1"><g transform="translate(216.678336, 285.627728)"><g><path d="M 6.9375 0 L 6.46875 -1.21875 L 6.40625 -1.21875 C 5.988281 -0.695312 5.5625 -0.335938 5.125 -0.140625 C 4.695312 0.0546875 4.132812 0.15625 3.4375 0.15625 C 2.582031 0.15625 1.910156 -0.0859375 1.421875 -0.578125 C 0.929688 -1.066406 0.6875 -1.757812 0.6875 -2.65625 C 0.6875 -3.601562 1.015625 -4.300781 1.671875 -4.75 C 2.335938 -5.195312 3.335938 -5.445312 4.671875 -5.5 L 6.21875 -5.546875 L 6.21875 -5.9375 C 6.21875 -6.84375 5.753906 -7.296875 4.828125 -7.296875 C 4.117188 -7.296875 3.28125 -7.082031 2.3125 -6.65625 L 1.515625 -8.296875 C 2.535156 -8.828125 3.671875 -9.09375 4.921875 -9.09375 C 6.117188 -9.09375 7.035156 -8.832031 7.671875 -8.3125 C 8.316406 -7.789062 8.640625 -7 8.640625 -5.9375 L 8.640625 0 Z M 6.21875 -4.125 L 5.28125 -4.09375 C 4.570312 -4.070312 4.046875 -3.941406 3.703125 -3.703125 C 3.359375 -3.472656 3.1875 -3.117188 3.1875 -2.640625 C 3.1875 -1.960938 3.578125 -1.625 4.359375 -1.625 C 4.921875 -1.625 5.367188 -1.785156 5.703125 -2.109375 C 6.046875 -2.429688 6.21875 -2.859375 6.21875 -3.390625 Z M 6.21875 -4.125 "/></g></g></g><g fill="#ffffff" fill-opacity="1"><g transform="translate(226.538997, 285.627728)"><g><path d="M 7.59375 0 L 7.265625 -1.140625 L 7.140625 -1.140625 C 6.878906 -0.722656 6.507812 -0.398438 6.03125 -0.171875 C 5.550781 0.046875 5.003906 0.15625 4.390625 0.15625 C 3.347656 0.15625 2.5625 -0.117188 2.03125 -0.671875 C 1.5 -1.234375 1.234375 -2.039062 1.234375 -3.09375 L 1.234375 -8.90625 L 3.65625 -8.90625 L 3.65625 -3.703125 C 3.65625 -3.066406 3.769531 -2.585938 4 -2.265625 C 4.226562 -1.941406 4.59375 -1.78125 5.09375 -1.78125 C 5.769531 -1.78125 6.257812 -2.003906 6.5625 -2.453125 C 6.875 -2.910156 7.03125 -3.664062 7.03125 -4.71875 L 7.03125 -8.90625 L 9.453125 -8.90625 L 9.453125 0 Z M 7.59375 0 "/></g></g></g><g fill="#ffffff" fill-opacity="1"><g transform="translate(237.268543, 285.627728)"><g/></g></g><g fill="#ffffff" fill-opacity="1"><g transform="translate(241.509344, 285.627728)"><g><path d="M 4.96875 -1.75 C 5.582031 -1.75 6.03125 -1.925781 6.3125 -2.28125 C 6.601562 -2.632812 6.765625 -3.25 6.796875 -4.125 L 6.796875 -4.421875 C 6.796875 -5.378906 6.644531 -6.066406 6.34375 -6.484375 C 6.050781 -6.898438 5.578125 -7.109375 4.921875 -7.109375 C 3.785156 -7.109375 3.21875 -6.207031 3.21875 -4.40625 C 3.21875 -3.507812 3.359375 -2.84375 3.640625 -2.40625 C 3.921875 -1.96875 4.363281 -1.75 4.96875 -1.75 Z M 4.09375 0.15625 C 3.039062 0.15625 2.21875 -0.242188 1.625 -1.046875 C 1.03125 -1.859375 0.734375 -2.988281 0.734375 -4.4375 C 0.734375 -5.894531 1.035156 -7.03125 1.640625 -7.84375 C 2.253906 -8.664062 3.085938 -9.078125 4.140625 -9.078125 C 4.703125 -9.078125 5.191406 -8.96875 5.609375 -8.75 C 6.035156 -8.539062 6.410156 -8.210938 6.734375 -7.765625 L 6.796875 -7.765625 L 7.015625 -8.90625 L 9.0625 -8.90625 L 9.0625 3.921875 L 6.625 3.921875 L 6.625 0.1875 C 6.625 -0.132812 6.660156 -0.582031 6.734375 -1.15625 L 6.625 -1.15625 C 6.363281 -0.726562 6.015625 -0.398438 5.578125 -0.171875 C 5.148438 0.046875 4.65625 0.15625 4.09375 0.15625 Z M 4.09375 0.15625 "/></g></g></g><g fill="#ffffff" fill-opacity="1"><g transform="translate(251.840318, 285.627728)"><g><path d="M 7.59375 0 L 7.265625 -1.140625 L 7.140625 -1.140625 C 6.878906 -0.722656 6.507812 -0.398438 6.03125 -0.171875 C 5.550781 0.046875 5.003906 0.15625 4.390625 0.15625 C 3.347656 0.15625 2.5625 -0.117188 2.03125 -0.671875 C 1.5 -1.234375 1.234375 -2.039062 1.234375 -3.09375 L 1.234375 -8.90625 L 3.65625 -8.90625 L 3.65625 -3.703125 C 3.65625 -3.066406 3.769531 -2.585938 4 -2.265625 C 4.226562 -1.941406 4.59375 -1.78125 5.09375 -1.78125 C 5.769531 -1.78125 6.257812 -2.003906 6.5625 -2.453125 C 6.875 -2.910156 7.03125 -3.664062 7.03125 -4.71875 L 7.03125 -8.90625 L 9.453125 -8.90625 L 9.453125 0 Z M 7.59375 0 "/></g></g></g><g fill="#ffffff" fill-opacity="1"><g transform="translate(262.569864, 285.627728)"><g><path d="M 3.21875 -4.46875 C 3.21875 -3.59375 3.359375 -2.925781 3.640625 -2.46875 C 3.929688 -2.019531 4.40625 -1.796875 5.0625 -1.796875 C 5.707031 -1.796875 6.171875 -2.019531 6.453125 -2.46875 C 6.742188 -2.914062 6.890625 -3.582031 6.890625 -4.46875 C 6.890625 -5.351562 6.742188 -6.015625 6.453125 -6.453125 C 6.171875 -6.898438 5.703125 -7.125 5.046875 -7.125 C 4.398438 -7.125 3.929688 -6.898438 3.640625 -6.453125 C 3.359375 -6.015625 3.21875 -5.351562 3.21875 -4.46875 Z M 9.375 -4.46875 C 9.375 -3.019531 8.988281 -1.882812 8.21875 -1.0625 C 7.457031 -0.25 6.394531 0.15625 5.03125 0.15625 C 4.175781 0.15625 3.421875 -0.03125 2.765625 -0.40625 C 2.109375 -0.78125 1.601562 -1.316406 1.25 -2.015625 C 0.90625 -2.710938 0.734375 -3.53125 0.734375 -4.46875 C 0.734375 -5.925781 1.113281 -7.054688 1.875 -7.859375 C 2.632812 -8.671875 3.703125 -9.078125 5.078125 -9.078125 C 5.929688 -9.078125 6.6875 -8.890625 7.34375 -8.515625 C 8 -8.148438 8.5 -7.617188 8.84375 -6.921875 C 9.195312 -6.222656 9.375 -5.40625 9.375 -4.46875 Z M 9.375 -4.46875 "/></g></g></g><g fill="#ffffff" fill-opacity="1"><g transform="translate(272.677639, 285.627728)"><g><path d="M 5.03125 -1.78125 C 5.457031 -1.78125 5.96875 -1.875 6.5625 -2.0625 L 6.5625 -0.25 C 5.957031 0.0195312 5.210938 0.15625 4.328125 0.15625 C 3.359375 0.15625 2.648438 -0.0859375 2.203125 -0.578125 C 1.753906 -1.066406 1.53125 -1.804688 1.53125 -2.796875 L 1.53125 -7.09375 L 0.375 -7.09375 L 0.375 -8.109375 L 1.71875 -8.921875 L 2.421875 -10.8125 L 3.96875 -10.8125 L 3.96875 -8.90625 L 6.46875 -8.90625 L 6.46875 -7.09375 L 3.96875 -7.09375 L 3.96875 -2.796875 C 3.96875 -2.441406 4.0625 -2.179688 4.25 -2.015625 C 4.445312 -1.859375 4.707031 -1.78125 5.03125 -1.78125 Z M 5.03125 -1.78125 "/></g></g></g><g fill="#ffffff" fill-opacity="1"><g transform="translate(279.764241, 285.627728)"><g><path d="M 1.171875 -11.21875 C 1.171875 -12.007812 1.613281 -12.40625 2.5 -12.40625 C 3.375 -12.40625 3.8125 -12.007812 3.8125 -11.21875 C 3.8125 -10.84375 3.703125 -10.546875 3.484375 -10.328125 C 3.265625 -10.117188 2.9375 -10.015625 2.5 -10.015625 C 1.613281 -10.015625 1.171875 -10.414062 1.171875 -11.21875 Z M 3.703125 0 L 1.28125 0 L 1.28125 -8.90625 L 3.703125 -8.90625 Z M 3.703125 0 "/></g></g></g><g fill="#ffffff" fill-opacity="1"><g transform="translate(284.746385, 285.627728)"><g><path d="M 4.09375 0.15625 C 3.050781 0.15625 2.226562 -0.25 1.625 -1.0625 C 1.03125 -1.875 0.734375 -3 0.734375 -4.4375 C 0.734375 -5.90625 1.035156 -7.046875 1.640625 -7.859375 C 2.253906 -8.671875 3.09375 -9.078125 4.15625 -9.078125 C 5.28125 -9.078125 6.140625 -8.640625 6.734375 -7.765625 L 6.8125 -7.765625 C 6.6875 -8.429688 6.625 -9.023438 6.625 -9.546875 L 6.625 -12.40625 L 9.0625 -12.40625 L 9.0625 0 L 7.203125 0 L 6.734375 -1.15625 L 6.625 -1.15625 C 6.070312 -0.28125 5.226562 0.15625 4.09375 0.15625 Z M 4.953125 -1.78125 C 5.578125 -1.78125 6.03125 -1.957031 6.3125 -2.3125 C 6.601562 -2.675781 6.765625 -3.289062 6.796875 -4.15625 L 6.796875 -4.421875 C 6.796875 -5.378906 6.644531 -6.066406 6.34375 -6.484375 C 6.050781 -6.898438 5.570312 -7.109375 4.90625 -7.109375 C 4.363281 -7.109375 3.941406 -6.875 3.640625 -6.40625 C 3.347656 -5.945312 3.203125 -5.28125 3.203125 -4.40625 C 3.203125 -3.53125 3.351562 -2.875 3.65625 -2.4375 C 3.957031 -2 4.390625 -1.78125 4.953125 -1.78125 Z M 4.953125 -1.78125 "/></g></g></g><g fill="#ffffff" fill-opacity="1"><g transform="translate(295.07736, 285.627728)"><g><path d="M 1.171875 -11.21875 C 1.171875 -12.007812 1.613281 -12.40625 2.5 -12.40625 C 3.375 -12.40625 3.8125 -12.007812 3.8125 -11.21875 C 3.8125 -10.84375 3.703125 -10.546875 3.484375 -10.328125 C 3.265625 -10.117188 2.9375 -10.015625 2.5 -10.015625 C 1.613281 -10.015625 1.171875 -10.414062 1.171875 -11.21875 Z M 3.703125 0 L 1.28125 0 L 1.28125 -8.90625 L 3.703125 -8.90625 Z M 3.703125 0 "/></g></g></g><g fill="#ffffff" fill-opacity="1"><g transform="translate(300.059504, 285.627728)"><g><path d="M 4.96875 -7.34375 C 4.445312 -7.34375 4.039062 -7.179688 3.75 -6.859375 C 3.457031 -6.535156 3.289062 -6.070312 3.25 -5.46875 L 6.671875 -5.46875 C 6.660156 -6.070312 6.5 -6.535156 6.1875 -6.859375 C 5.882812 -7.179688 5.476562 -7.34375 4.96875 -7.34375 Z M 5.3125 0.15625 C 3.875 0.15625 2.75 -0.238281 1.9375 -1.03125 C 1.132812 -1.820312 0.734375 -2.941406 0.734375 -4.390625 C 0.734375 -5.890625 1.101562 -7.046875 1.84375 -7.859375 C 2.59375 -8.671875 3.628906 -9.078125 4.953125 -9.078125 C 6.210938 -9.078125 7.191406 -8.71875 7.890625 -8 C 8.597656 -7.28125 8.953125 -6.289062 8.953125 -5.03125 L 8.953125 -3.84375 L 3.203125 -3.84375 C 3.222656 -3.15625 3.425781 -2.617188 3.8125 -2.234375 C 4.195312 -1.847656 4.734375 -1.65625 5.421875 -1.65625 C 5.960938 -1.65625 6.46875 -1.707031 6.9375 -1.8125 C 7.414062 -1.925781 7.914062 -2.109375 8.4375 -2.359375 L 8.4375 -0.46875 C 8.019531 -0.257812 7.566406 -0.101562 7.078125 0 C 6.597656 0.101562 6.007812 0.15625 5.3125 0.15625 Z M 5.3125 0.15625 "/></g></g></g><g fill="#ffffff" fill-opacity="1"><g transform="translate(309.704936, 285.627728)"><g><path d="M 9.5 0 L 7.078125 0 L 7.078125 -5.203125 C 7.078125 -5.847656 6.960938 -6.332031 6.734375 -6.65625 C 6.503906 -6.976562 6.140625 -7.140625 5.640625 -7.140625 C 4.953125 -7.140625 4.457031 -6.910156 4.15625 -6.453125 C 3.851562 -5.992188 3.703125 -5.238281 3.703125 -4.1875 L 3.703125 0 L 1.28125 0 L 1.28125 -8.90625 L 3.140625 -8.90625 L 3.453125 -7.765625 L 3.59375 -7.765625 C 3.863281 -8.203125 4.234375 -8.53125 4.703125 -8.75 C 5.179688 -8.96875 5.726562 -9.078125 6.34375 -9.078125 C 7.375 -9.078125 8.15625 -8.796875 8.6875 -8.234375 C 9.226562 -7.679688 9.5 -6.875 9.5 -5.8125 Z M 9.5 0 "/></g></g></g></svg>