<svg width="405" height="223" viewBox="0 0 405 223" fill="none" xmlns="http://www.w3.org/2000/svg">
<path d="M57.3904 181.119L46.557 222.098H40.4737L32.9945 196.014C32.7862 195.337 32.5779 194.593 32.3695 193.785C32.1716 192.983 31.9737 192.181 31.7654 191.389C31.5675 190.598 31.4008 189.884 31.2654 189.244C31.1404 188.608 31.0466 188.119 30.9945 187.785C30.9633 188.119 30.8904 188.598 30.7654 189.223C30.6404 189.848 30.4945 190.556 30.3279 191.348C30.1612 192.129 29.9737 192.926 29.7654 193.744C29.557 194.551 29.3539 195.322 29.1612 196.056L21.8279 222.098H15.7862L5.01538 181.119H10.8695L17.1195 205.973C17.3279 206.796 17.5258 207.634 17.7237 208.494C17.9164 209.343 18.0987 210.192 18.2654 211.035C18.4425 211.884 18.5987 212.712 18.7237 213.514C18.8487 214.306 18.9633 215.056 19.0779 215.764C19.1716 215.03 19.2966 214.254 19.4529 213.431C19.6039 212.598 19.7654 211.754 19.932 210.889C20.1091 210.03 20.307 209.181 20.5154 208.348C20.7237 207.504 20.9373 206.697 21.1612 205.931L28.182 181.119H33.9112L41.182 206.056C41.4008 206.848 41.6195 207.676 41.8279 208.535C42.0466 209.4 42.2498 210.259 42.432 211.119C42.6091 211.968 42.7706 212.785 42.9112 213.577C43.0466 214.358 43.1716 215.087 43.2862 215.764C43.4112 214.837 43.5675 213.827 43.7654 212.744C43.9737 211.65 44.2029 210.525 44.4529 209.369C44.7133 208.218 44.9789 207.077 45.2445 205.952L51.4945 181.119H57.3904Z" fill="#4BA66A" fill-opacity="0.4"/>
<path d="M102.327 201.556C102.327 204.712 101.92 207.587 101.118 210.181C100.327 212.764 99.1391 214.988 97.5557 216.848C95.9724 218.712 93.9985 220.15 91.6391 221.16C89.2745 222.16 86.5141 222.66 83.3474 222.66C80.1391 222.66 77.337 222.16 74.9516 221.16C72.5766 220.15 70.6026 218.702 69.0349 216.827C67.462 214.952 66.2901 212.718 65.5141 210.119C64.7328 207.525 64.3474 204.65 64.3474 201.494C64.3474 197.285 65.0349 193.608 66.4099 190.452C67.7953 187.285 69.9099 184.837 72.7432 183.098C75.5766 181.348 79.1391 180.473 83.4307 180.473C87.5818 180.473 91.061 181.343 93.8682 183.077C96.6703 184.817 98.7849 187.259 100.202 190.41C101.618 193.551 102.327 197.264 102.327 201.556ZM70.3682 201.556C70.3682 204.879 70.8266 207.754 71.7432 210.181C72.6703 212.598 74.0974 214.468 76.0141 215.785C77.9307 217.093 80.3735 217.744 83.3474 217.744C86.3578 217.744 88.8162 217.093 90.7224 215.785C92.6235 214.468 94.0245 212.598 94.9307 210.181C95.8318 207.754 96.2849 204.879 96.2849 201.556C96.2849 196.504 95.2537 192.551 93.2016 189.702C91.1443 186.858 87.8891 185.431 83.4307 185.431C80.4412 185.431 77.9828 186.087 76.0557 187.389C74.1391 188.681 72.7068 190.53 71.7641 192.931C70.8318 195.337 70.3682 198.212 70.3682 201.556Z" fill="#4BA66A" fill-opacity="0.4"/>
<path d="M147.274 222.098H140.378L119.17 188.514H118.94C118.992 189.53 119.055 190.639 119.128 191.848C119.211 193.046 119.274 194.301 119.315 195.619C119.357 196.942 119.388 198.275 119.42 199.619V222.098H114.149V181.119H120.982L142.128 214.535H142.315C142.274 213.702 142.222 212.681 142.17 211.473C142.112 210.264 142.065 208.983 142.024 207.619C141.982 206.259 141.961 204.973 141.961 203.764V181.119H147.274V222.098Z" fill="#4BA66A" fill-opacity="0.4"/>
<path d="M184.137 222.098H161.116V181.119H184.137V186.035H166.866V198.244H183.095V203.119H166.866V217.139H184.137V222.098Z" fill="#4BA66A" fill-opacity="0.4"/>
<path d="M213.73 222.098V181.119H219.48V222.098H213.73Z" fill="#4BA66A" fill-opacity="0.4"/>
<path d="M266.519 222.098H259.623L238.414 188.514H238.185C238.237 189.53 238.3 190.639 238.373 191.848C238.456 193.046 238.519 194.301 238.56 195.619C238.602 196.942 238.633 198.275 238.664 199.619V222.098H233.394V181.119H240.227L261.373 214.535H261.56C261.519 213.702 261.466 212.681 261.414 211.473C261.357 210.264 261.31 208.983 261.269 207.619C261.227 206.259 261.206 204.973 261.206 203.764V181.119H266.519V222.098Z" fill="#4BA66A" fill-opacity="0.4"/>
<path d="M313.486 222.098H306.59L285.382 188.514H285.153C285.205 189.53 285.267 190.639 285.34 191.848C285.424 193.046 285.486 194.301 285.528 195.619C285.569 196.942 285.601 198.275 285.632 199.619V222.098H280.361V181.119H287.194L308.34 214.535H308.528C308.486 213.702 308.434 212.681 308.382 211.473C308.325 210.264 308.278 208.983 308.236 207.619C308.194 206.259 308.174 204.973 308.174 203.764V181.119H313.486V222.098Z" fill="#4BA66A" fill-opacity="0.4"/>
<path d="M363.287 201.556C363.287 204.712 362.881 207.587 362.078 210.181C361.287 212.764 360.099 214.988 358.516 216.848C356.933 218.712 354.959 220.15 352.599 221.16C350.235 222.16 347.474 222.66 344.308 222.66C341.099 222.66 338.297 222.16 335.912 221.16C333.537 220.15 331.563 218.702 329.995 216.827C328.422 214.952 327.25 212.718 326.474 210.119C325.693 207.525 325.308 204.65 325.308 201.494C325.308 197.285 325.995 193.608 327.37 190.452C328.756 187.285 330.87 184.837 333.703 183.098C336.537 181.348 340.099 180.473 344.391 180.473C348.542 180.473 352.021 181.343 354.828 183.077C357.631 184.817 359.745 187.259 361.162 190.41C362.578 193.551 363.287 197.264 363.287 201.556ZM331.328 201.556C331.328 204.879 331.787 207.754 332.703 210.181C333.631 212.598 335.058 214.468 336.974 215.785C338.891 217.093 341.334 217.744 344.308 217.744C347.318 217.744 349.776 217.093 351.683 215.785C353.584 214.468 354.985 212.598 355.891 210.181C356.792 207.754 357.245 204.879 357.245 201.556C357.245 196.504 356.214 192.551 354.162 189.702C352.104 186.858 348.849 185.431 344.391 185.431C341.401 185.431 338.943 186.087 337.016 187.389C335.099 188.681 333.667 190.53 332.724 192.931C331.792 195.337 331.328 198.212 331.328 201.556Z" fill="#4BA66A" fill-opacity="0.4"/>
<path d="M404.63 181.119L390.109 222.098H384.13L369.609 181.119H375.546L384.671 207.473C385.005 208.379 385.317 209.343 385.609 210.369C385.911 211.384 386.197 212.4 386.463 213.41C386.723 214.41 386.942 215.337 387.109 216.181C387.276 215.337 387.484 214.41 387.734 213.41C387.984 212.4 388.265 211.379 388.588 210.348C388.906 209.306 389.223 208.322 389.546 207.389L398.63 181.119H404.63Z" fill="#4BA66A" fill-opacity="0.4"/>
<path d="M52.8728 176.601L42.0395 217.58H35.9561L28.477 191.497C28.2686 190.82 28.0603 190.075 27.852 189.268C27.6541 188.466 27.4561 187.664 27.2478 186.872C27.0499 186.08 26.8832 185.367 26.7478 184.726C26.6228 184.091 26.5291 183.601 26.477 183.268C26.4457 183.601 26.3728 184.08 26.2478 184.705C26.1228 185.33 25.977 186.039 25.8103 186.83C25.6436 187.611 25.4561 188.408 25.2478 189.226C25.0395 190.033 24.8363 190.804 24.6436 191.539L17.3103 217.58H11.2686L0.497803 176.601H6.35197L12.602 201.455C12.8103 202.278 13.0082 203.117 13.2061 203.976C13.3988 204.825 13.5811 205.674 13.7478 206.518C13.9249 207.367 14.0811 208.195 14.2061 208.997C14.3311 209.789 14.4457 210.539 14.5603 211.247C14.6541 210.513 14.7791 209.736 14.9353 208.914C15.0863 208.08 15.2478 207.236 15.4145 206.372C15.5916 205.513 15.7895 204.664 15.9978 203.83C16.2061 202.986 16.4197 202.179 16.6436 201.414L23.6645 176.601H29.3936L36.6645 201.539C36.8832 202.33 37.102 203.158 37.3103 204.018C37.5291 204.882 37.7322 205.742 37.9145 206.601C38.0916 207.45 38.253 208.268 38.3936 209.059C38.5291 209.841 38.6541 210.57 38.7686 211.247C38.8936 210.32 39.0499 209.309 39.2478 208.226C39.4561 207.132 39.6853 206.007 39.9353 204.851C40.1957 203.7 40.4613 202.559 40.727 201.434L46.977 176.601H52.8728Z" fill="#4BA66A"/>
<path d="M97.809 197.039C97.809 200.195 97.4028 203.07 96.6007 205.664C95.809 208.247 94.6215 210.471 93.0382 212.33C91.4548 214.195 89.4809 215.632 87.1215 216.643C84.7569 217.643 81.9965 218.143 78.8298 218.143C75.6215 218.143 72.8194 217.643 70.434 216.643C68.059 215.632 66.085 214.184 64.5173 212.309C62.9444 210.434 61.7725 208.2 60.9965 205.601C60.2153 203.007 59.8298 200.132 59.8298 196.976C59.8298 192.768 60.5173 189.091 61.8923 185.934C63.2778 182.768 65.3923 180.32 68.2257 178.58C71.059 176.83 74.6215 175.955 78.9132 175.955C83.0642 175.955 86.5434 176.825 89.3507 178.559C92.1528 180.299 94.2673 182.742 95.684 185.893C97.1007 189.033 97.809 192.747 97.809 197.039ZM65.8507 197.039C65.8507 200.362 66.309 203.237 67.2257 205.664C68.1528 208.08 69.5798 209.95 71.4965 211.268C73.4132 212.575 75.8559 213.226 78.8298 213.226C81.8403 213.226 84.2986 212.575 86.2048 211.268C88.1059 209.95 89.5069 208.08 90.4132 205.664C91.3142 203.237 91.7673 200.362 91.7673 197.039C91.7673 191.987 90.7361 188.033 88.684 185.184C86.6267 182.341 83.3715 180.914 78.9132 180.914C75.9236 180.914 73.4653 181.57 71.5382 182.872C69.6215 184.164 68.1892 186.013 67.2465 188.414C66.3142 190.82 65.8507 193.695 65.8507 197.039Z" fill="#4BA66A"/>
<path d="M142.756 217.58H135.861L114.652 183.997H114.423C114.475 185.013 114.538 186.122 114.611 187.33C114.694 188.528 114.756 189.783 114.798 191.101C114.84 192.424 114.871 193.757 114.902 195.101V217.58H109.631V176.601H116.465L137.611 210.018H137.798C137.756 209.184 137.704 208.164 137.652 206.955C137.595 205.747 137.548 204.466 137.506 203.101C137.465 201.742 137.444 200.455 137.444 199.247V176.601H142.756V217.58Z" fill="#4BA66A"/>
<path d="M179.619 217.58H156.599V176.601H179.619V181.518H162.349V193.726H178.578V198.601H162.349V212.622H179.619V217.58Z" fill="#4BA66A"/>
<path d="M209.213 217.58V176.601H214.963V217.58H209.213Z" fill="#4BA66A"/>
<path d="M262.001 217.58H255.105L233.897 183.997H233.668C233.72 185.013 233.782 186.122 233.855 187.33C233.938 188.528 234.001 189.783 234.043 191.101C234.084 192.424 234.116 193.757 234.147 195.101V217.58H228.876V176.601H235.709L256.855 210.018H257.043C257.001 209.184 256.949 208.164 256.897 206.955C256.84 205.747 256.793 204.466 256.751 203.101C256.709 201.742 256.688 200.455 256.688 199.247V176.601H262.001V217.58Z" fill="#4BA66A"/>
<path d="M308.969 217.58H302.073L280.864 183.997H280.635C280.687 185.013 280.75 186.122 280.823 187.33C280.906 188.528 280.969 189.783 281.01 191.101C281.052 192.424 281.083 193.757 281.114 195.101V217.58H275.844V176.601H282.677L303.823 210.018H304.01C303.969 209.184 303.916 208.164 303.864 206.955C303.807 205.747 303.76 204.466 303.719 203.101C303.677 201.742 303.656 200.455 303.656 199.247V176.601H308.969V217.58Z" fill="#4BA66A"/>
<path d="M358.769 197.039C358.769 200.195 358.363 203.07 357.561 205.664C356.769 208.247 355.582 210.471 353.998 212.33C352.415 214.195 350.441 215.632 348.082 216.643C345.717 217.643 342.957 218.143 339.79 218.143C336.582 218.143 333.78 217.643 331.394 216.643C329.019 215.632 327.045 214.184 325.478 212.309C323.905 210.434 322.733 208.2 321.957 205.601C321.175 203.007 320.79 200.132 320.79 196.976C320.79 192.768 321.478 189.091 322.853 185.934C324.238 182.768 326.353 180.32 329.186 178.58C332.019 176.83 335.582 175.955 339.873 175.955C344.024 175.955 347.504 176.825 350.311 178.559C353.113 180.299 355.228 182.742 356.644 185.893C358.061 189.033 358.769 192.747 358.769 197.039ZM326.811 197.039C326.811 200.362 327.269 203.237 328.186 205.664C329.113 208.08 330.54 209.95 332.457 211.268C334.373 212.575 336.816 213.226 339.79 213.226C342.8 213.226 345.259 212.575 347.165 211.268C349.066 209.95 350.467 208.08 351.373 205.664C352.274 203.237 352.728 200.362 352.728 197.039C352.728 191.987 351.696 188.033 349.644 185.184C347.587 182.341 344.332 180.914 339.873 180.914C336.884 180.914 334.425 181.57 332.498 182.872C330.582 184.164 329.149 186.013 328.207 188.414C327.274 190.82 326.811 193.695 326.811 197.039Z" fill="#4BA66A"/>
<path d="M400.112 176.601L385.592 217.58H379.612L365.092 176.601H371.029L380.154 202.955C380.487 203.861 380.8 204.825 381.092 205.851C381.394 206.867 381.68 207.882 381.946 208.893C382.206 209.893 382.425 210.82 382.592 211.664C382.758 210.82 382.967 209.893 383.217 208.893C383.467 207.882 383.748 206.861 384.071 205.83C384.388 204.789 384.706 203.804 385.029 202.872L394.112 176.601H400.112Z" fill="#4BA66A"/>
<mask id="mask0_189_333" style="mask-type:luminance" maskUnits="userSpaceOnUse" x="179" y="42" width="42" height="110">
<path d="M179.542 42.6094H220.339V151.745H179.542V42.6094Z" fill="white"/>
</mask>
<g mask="url(#mask0_189_333)">
<path d="M198.927 47.3698L199.995 46.302L201.063 47.3698C207.589 53.901 207.589 64.526 201.063 71.052L199.995 72.1198L198.927 71.052C192.396 64.526 192.396 53.901 198.927 47.3698ZM216.302 75.7031C218.938 72.1718 220.333 67.9687 220.333 63.5468C220.333 62.7291 219.667 62.0677 218.849 62.0677C214.859 62.0677 211.13 63.2239 207.984 65.2187C210.151 58.4166 208.542 50.6666 203.156 45.276L201.042 43.1614C200.766 42.8854 200.385 42.7291 199.995 42.7291C199.599 42.7291 199.224 42.8854 198.948 43.1614L196.833 45.276C191.453 50.6614 189.839 58.401 191.995 65.2031C188.776 63.1614 185.042 62.0677 181.135 62.0677C180.318 62.0677 179.656 62.7291 179.656 63.5468C179.656 67.9687 181.052 72.1718 183.688 75.7031C186.234 79.1145 189.865 81.6927 193.906 82.9583C194.687 83.2031 195.521 82.7708 195.76 81.9895C196.005 81.2083 195.573 80.3802 194.792 80.1354C188.005 78.0104 183.297 72.0781 182.688 65.0989C191.542 65.8854 198.516 73.3437 198.516 82.4062V150.474C198.516 151.292 199.177 151.953 199.995 151.953C200.813 151.953 201.474 151.292 201.474 150.474V82.4062C201.474 77.7656 203.281 73.401 206.563 70.1198C209.479 67.2031 213.245 65.4531 217.302 65.0989C216.693 72.0781 211.979 78.0052 205.198 80.1354C204.417 80.3802 203.979 81.2083 204.224 81.9895C204.469 82.7708 205.302 83.2031 206.083 82.9583C210.125 81.6927 213.755 79.1145 216.302 75.7031Z" fill="#31B052"/>
</g>
<path d="M243.516 46.8854C237.865 41.2344 231.281 36.7969 223.953 33.6979C216.365 30.4844 208.302 28.8594 199.995 28.8594C191.688 28.8594 183.625 30.4844 176.037 33.6979C168.708 36.7969 162.125 41.2344 156.474 46.8854C150.823 52.5365 146.385 59.1198 143.287 66.4479C140.073 74.0365 138.448 82.099 138.448 90.4062C138.448 97.7448 139.729 104.927 142.25 111.75C144.688 118.344 148.219 124.432 152.745 129.849C161.849 140.745 174.5 148.203 188.37 150.854C188.802 150.938 189.25 150.823 189.589 150.542C189.927 150.26 190.125 149.844 190.125 149.401V102.844C190.125 97.4115 188.011 92.3021 184.172 88.4635C180.328 84.6198 175.224 82.5052 169.792 82.5052C168.969 82.5052 168.307 83.1667 168.307 83.9844C168.307 88.4063 169.703 92.6094 172.339 96.1406C174.885 99.5521 178.516 102.13 182.557 103.396C183.339 103.641 184.172 103.208 184.412 102.427C184.656 101.646 184.224 100.818 183.443 100.573C176.662 98.4427 171.948 92.5156 171.339 85.5365C180.198 86.3229 187.167 93.7865 187.167 102.844V117.177C183.172 110.052 175.542 105.224 166.807 105.224C165.99 105.224 165.328 105.885 165.328 106.703C165.328 111.766 166.927 116.589 169.948 120.635C172.87 124.547 177.031 127.505 181.667 128.958C182.448 129.203 183.276 128.766 183.521 127.984C183.766 127.208 183.333 126.375 182.552 126.13C174.516 123.615 168.958 116.536 168.349 108.24C178.854 109.031 187.167 117.833 187.167 128.536V147.583C160.547 141.646 141.412 117.88 141.412 90.4062C141.412 58.1042 167.688 31.8229 199.995 31.8229C232.297 31.8229 258.578 58.1042 258.578 90.4062C258.578 117.88 239.443 141.646 212.823 147.583V128.536C212.823 117.833 221.135 109.031 231.641 108.24C231.026 116.536 225.474 123.615 217.438 126.13C216.656 126.375 216.224 127.208 216.464 127.984C216.708 128.766 217.542 129.203 218.323 128.958C222.958 127.505 227.12 124.547 230.042 120.635C233.063 116.589 234.662 111.771 234.662 106.703C234.662 105.885 233.995 105.224 233.177 105.224C224.443 105.224 216.818 110.052 212.823 117.177V102.844C212.823 98.2031 214.63 93.8385 217.912 90.5573C220.828 87.6406 224.594 85.8906 228.651 85.5365C228.042 92.5156 223.328 98.4427 216.542 100.573C215.766 100.818 215.328 101.646 215.573 102.427C215.818 103.208 216.651 103.641 217.427 103.396C221.474 102.13 225.104 99.5521 227.651 96.1406C230.287 92.6094 231.677 88.4063 231.677 83.9844C231.677 83.1667 231.016 82.5052 230.198 82.5052C218.984 82.5052 209.859 91.6302 209.859 102.844V149.401C209.859 149.844 210.057 150.26 210.401 150.542C210.667 150.76 211 150.88 211.344 150.88C211.438 150.88 211.526 150.875 211.62 150.854C225.484 148.203 238.135 140.745 247.245 129.849C251.771 124.432 255.302 118.344 257.74 111.75C260.261 104.927 261.542 97.7448 261.542 90.4062C261.542 82.099 259.912 74.0365 256.703 66.4479C253.604 59.1198 249.167 52.5365 243.516 46.8854Z" fill="#31B052"/>
<mask id="mask1_189_333" style="mask-type:luminance" maskUnits="userSpaceOnUse" x="198" y="0" width="4" height="25">
<path d="M198 0.744812H202V24.6667H198V0.744812Z" fill="white"/>
</mask>
<g mask="url(#mask1_189_333)">
<path d="M199.995 23.6563C200.812 23.6563 201.474 22.9948 201.474 22.1771V2.26042C201.474 1.44271 200.812 0.78125 199.995 0.78125C199.177 0.78125 198.516 1.44271 198.516 2.26042V22.1771C198.516 22.9948 199.177 23.6563 199.995 23.6563Z" fill="#31B052"/>
</g>
<path d="M172.516 27.9375C172.75 28.5052 173.302 28.849 173.886 28.849C174.073 28.849 174.266 28.8125 174.448 28.7344C175.203 28.4219 175.563 27.5573 175.25 26.8021L170.755 15.9479C170.443 15.1927 169.578 14.8333 168.823 15.1458C168.068 15.4583 167.708 16.3281 168.021 17.0833L172.516 27.9375Z" fill="#31B052"/>
<path d="M137.521 62.9271L126.672 58.4323C125.917 58.1198 125.047 58.4792 124.734 59.2344C124.422 59.9896 124.781 60.8542 125.536 61.1667L136.391 65.6615C136.573 65.7396 136.766 65.7761 136.958 65.7761C137.536 65.7761 138.089 65.4323 138.323 64.8594C138.635 64.1042 138.276 63.2396 137.521 62.9271Z" fill="#31B052"/>
<path d="M136.391 115.151L125.536 119.646C124.781 119.958 124.422 120.823 124.734 121.578C124.974 122.151 125.521 122.495 126.104 122.495C126.292 122.495 126.484 122.458 126.672 122.38L137.521 117.885C138.276 117.573 138.635 116.703 138.323 115.948C138.01 115.193 137.146 114.839 136.391 115.151Z" fill="#31B052"/>
<path d="M150.698 137.604L142.396 145.911C141.818 146.49 141.818 147.427 142.396 148.005C142.682 148.297 143.062 148.437 143.443 148.437C143.818 148.437 144.198 148.297 144.49 148.005L152.792 139.698C153.375 139.12 153.375 138.182 152.792 137.604C152.213 137.026 151.276 137.026 150.698 137.604Z" fill="#31B052"/>
<path d="M249.286 137.604C248.708 137.026 247.771 137.026 247.193 137.604C246.615 138.182 246.615 139.12 247.193 139.698L255.5 148.005C255.792 148.297 256.167 148.437 256.547 148.437C256.927 148.437 257.307 148.297 257.594 148.005C258.172 147.427 258.172 146.49 257.594 145.911L249.286 137.604Z" fill="#31B052"/>
<path d="M274.448 119.646L263.599 115.151C262.844 114.839 261.974 115.193 261.662 115.948C261.349 116.703 261.708 117.573 262.464 117.885L273.318 122.38C273.505 122.458 273.693 122.495 273.886 122.495C274.464 122.495 275.016 122.151 275.255 121.578C275.563 120.823 275.208 119.958 274.448 119.646Z" fill="#31B052"/>
<path d="M261.662 64.8594C261.901 65.4323 262.453 65.7761 263.031 65.7761C263.224 65.7761 263.412 65.7396 263.599 65.6615L274.448 61.1667C275.208 60.8542 275.563 59.9896 275.255 59.2344C274.938 58.4792 274.073 58.1198 273.318 58.4323L262.464 62.9271C261.708 63.2396 261.349 64.1042 261.662 64.8594Z" fill="#31B052"/>
<path d="M225.536 28.7344C225.724 28.8125 225.917 28.849 226.104 28.849C226.687 28.849 227.234 28.5052 227.474 27.9375L231.969 17.0833C232.281 16.3281 231.922 15.4583 231.167 15.1458C230.411 14.8333 229.547 15.1927 229.234 15.9479L224.734 26.8021C224.422 27.5573 224.781 28.4219 225.536 28.7344Z" fill="#31B052"/>
<mask id="mask2_189_333" style="mask-type:luminance" maskUnits="userSpaceOnUse" x="266" y="88" width="24" height="4">
<path d="M266.604 88.875H289.37V91.9792H266.604V88.875Z" fill="white"/>
</mask>
<g mask="url(#mask2_189_333)">
<path d="M288.141 88.9271H268.224C267.406 88.9271 266.745 89.5886 266.745 90.4063C266.745 91.224 267.406 91.8855 268.224 91.8855H288.141C288.958 91.8855 289.62 91.224 289.62 90.4063C289.62 89.5886 288.958 88.9271 288.141 88.9271Z" fill="#31B052"/>
</g>
<mask id="mask3_189_333" style="mask-type:luminance" maskUnits="userSpaceOnUse" x="110" y="88" width="24" height="5">
<path d="M110.37 88.6666H134V92.6666H110.37V88.6666Z" fill="white"/>
</mask>
<g mask="url(#mask3_189_333)">
<path d="M133.245 90.4062C133.245 89.5885 132.578 88.927 131.76 88.927H111.849C111.031 88.927 110.37 89.5885 110.37 90.4062C110.37 91.2239 111.031 91.8853 111.849 91.8853H131.76C132.578 91.8853 133.245 91.2239 133.245 90.4062Z" fill="#31B052"/>
</g>
<path d="M248.24 43.6406C248.62 43.6406 249 43.4948 249.286 43.2083L263.37 29.125C263.948 28.5469 263.948 27.6094 263.37 27.0313C262.792 26.4531 261.854 26.4531 261.276 27.0313L247.193 41.1146C246.615 41.6927 246.615 42.6302 247.193 43.2083C247.484 43.4948 247.859 43.6406 248.24 43.6406Z" fill="#31B052"/>
<path d="M150.698 43.2083C150.99 43.4948 151.37 43.6406 151.745 43.6406C152.125 43.6406 152.505 43.4948 152.792 43.2083C153.375 42.6302 153.375 41.6927 152.792 41.1146L138.714 27.0313C138.135 26.4531 137.198 26.4531 136.62 27.0313C136.042 27.6094 136.042 28.5469 136.62 29.125L150.698 43.2083Z" fill="#31B052"/>
</svg>
