<svg width="405" height="47" viewBox="0 0 405 47" fill="none" xmlns="http://www.w3.org/2000/svg">
<path d="M56.8926 5.16333L46.0592 46.1425H39.9759L32.4967 20.0592C32.2884 19.3821 32.0801 18.6373 31.8717 17.83C31.6738 17.0279 31.4759 16.2258 31.2676 15.4342C31.0697 14.6425 30.903 13.929 30.7676 13.2883C30.6426 12.6529 30.5488 12.1633 30.4967 11.83C30.4655 12.1633 30.3926 12.6425 30.2676 13.2675C30.1426 13.8925 29.9967 14.6008 29.8301 15.3925C29.6634 16.1737 29.4759 16.9706 29.2676 17.7883C29.0592 18.5956 28.8561 19.3665 28.6634 20.1008L21.3301 46.1425H15.2884L4.51758 5.16333H10.3717L16.6217 30.0175C16.8301 30.8404 17.028 31.679 17.2259 32.5383C17.4186 33.3873 17.6009 34.2362 17.7676 35.08C17.9447 35.929 18.1009 36.7571 18.2259 37.5592C18.3509 38.3508 18.4655 39.1008 18.5801 39.8092C18.6738 39.0748 18.7988 38.2987 18.9551 37.4758C19.1061 36.6425 19.2676 35.7987 19.4342 34.9342C19.6113 34.0748 19.8092 33.2258 20.0176 32.3925C20.2259 31.5487 20.4395 30.7415 20.6634 29.9758L27.6842 5.16333H33.4134L40.6842 30.1008C40.903 30.8925 41.1217 31.7206 41.3301 32.58C41.5488 33.4446 41.752 34.304 41.9342 35.1633C42.1113 36.0123 42.2728 36.83 42.4134 37.6217C42.5488 38.4029 42.6738 39.1321 42.7884 39.8092C42.9134 38.8821 43.0697 37.8717 43.2676 36.7883C43.4759 35.6946 43.7051 34.5696 43.9551 33.4133C44.2155 32.2623 44.4811 31.1217 44.7467 29.9967L50.9967 5.16333H56.8926Z" fill="#4BA66A" fill-opacity="0.4"/>
<path d="M101.829 25.6008C101.829 28.757 101.423 31.632 100.62 34.2258C99.8288 36.8091 98.6413 39.0331 97.0579 40.8925C95.4746 42.757 93.5007 44.1945 91.1413 45.205C88.7767 46.205 86.0163 46.705 82.8496 46.705C79.6413 46.705 76.8392 46.205 74.4538 45.205C72.0788 44.1945 70.1048 42.7466 68.5371 40.8716C66.9642 38.9966 65.7923 36.7622 65.0163 34.1633C64.235 31.5695 63.8496 28.6945 63.8496 25.5383C63.8496 21.33 64.5371 17.6529 65.9121 14.4966C67.2975 11.33 69.4121 8.88204 72.2454 7.14246C75.0788 5.39246 78.6413 4.51746 82.9329 4.51746C87.084 4.51746 90.5632 5.38725 93.3704 7.12162C96.1725 8.86121 98.2871 11.3039 99.7038 14.455C101.12 17.5956 101.829 21.3091 101.829 25.6008ZM69.8704 25.6008C69.8704 28.9237 70.3288 31.7987 71.2454 34.2258C72.1725 36.6425 73.5996 38.5122 75.5163 39.83C77.4329 41.1372 79.8757 41.7883 82.8496 41.7883C85.86 41.7883 88.3184 41.1372 90.2246 39.83C92.1257 38.5122 93.5267 36.6425 94.4329 34.2258C95.334 31.7987 95.7871 28.9237 95.7871 25.6008C95.7871 20.5487 94.7559 16.5956 92.7038 13.7466C90.6465 10.9029 87.3913 9.47579 82.9329 9.47579C79.9434 9.47579 77.485 10.132 75.5579 11.4341C73.6413 12.7258 72.209 14.5747 71.2663 16.9758C70.334 19.382 69.8704 22.257 69.8704 25.6008Z" fill="#4BA66A" fill-opacity="0.4"/>
<path d="M146.776 46.1425H139.88L118.672 12.5592H118.443C118.495 13.5748 118.557 14.6842 118.63 15.8925C118.713 17.0904 118.776 18.3456 118.818 19.6633C118.859 20.9862 118.89 22.3196 118.922 23.6633V46.1425H113.651V5.16333H120.484L141.63 38.58H141.818C141.776 37.7467 141.724 36.7258 141.672 35.5175C141.614 34.3092 141.568 33.0279 141.526 31.6633C141.484 30.304 141.463 29.0175 141.463 27.8092V5.16333H146.776V46.1425Z" fill="#4BA66A" fill-opacity="0.4"/>
<path d="M183.639 46.1425H160.618V5.16333H183.639V10.08H166.368V22.2883H182.598V27.1633H166.368V41.1842H183.639V46.1425Z" fill="#4BA66A" fill-opacity="0.4"/>
<path d="M213.233 46.1425V5.16333H218.983V46.1425H213.233Z" fill="#4BA66A" fill-opacity="0.4"/>
<path d="M266.021 46.1425H259.125L237.917 12.5592H237.687C237.74 13.5748 237.802 14.6842 237.875 15.8925C237.958 17.0904 238.021 18.3456 238.062 19.6633C238.104 20.9862 238.135 22.3196 238.167 23.6633V46.1425H232.896V5.16333H239.729L260.875 38.58H261.062C261.021 37.7467 260.969 36.7258 260.917 35.5175C260.859 34.3092 260.812 33.0279 260.771 31.6633C260.729 30.304 260.708 29.0175 260.708 27.8092V5.16333H266.021V46.1425Z" fill="#4BA66A" fill-opacity="0.4"/>
<path d="M312.988 46.1425H306.092L284.884 12.5592H284.655C284.707 13.5748 284.77 14.6842 284.842 15.8925C284.926 17.0904 284.988 18.3456 285.03 19.6633C285.072 20.9862 285.103 22.3196 285.134 23.6633V46.1425H279.863V5.16333H286.697L307.842 38.58H308.03C307.988 37.7467 307.936 36.7258 307.884 35.5175C307.827 34.3092 307.78 33.0279 307.738 31.6633C307.697 30.304 307.676 29.0175 307.676 27.8092V5.16333H312.988V46.1425Z" fill="#4BA66A" fill-opacity="0.4"/>
<path d="M362.789 25.6008C362.789 28.757 362.383 31.632 361.581 34.2258C360.789 36.8091 359.601 39.0331 358.018 40.8925C356.435 42.757 354.461 44.1945 352.101 45.205C349.737 46.205 346.976 46.705 343.81 46.705C340.601 46.705 337.799 46.205 335.414 45.205C333.039 44.1945 331.065 42.7466 329.497 40.8716C327.924 38.9966 326.753 36.7622 325.976 34.1633C325.195 31.5695 324.81 28.6945 324.81 25.5383C324.81 21.33 325.497 17.6529 326.872 14.4966C328.258 11.33 330.372 8.88204 333.206 7.14246C336.039 5.39246 339.601 4.51746 343.893 4.51746C348.044 4.51746 351.523 5.38725 354.331 7.12162C357.133 8.86121 359.247 11.3039 360.664 14.455C362.081 17.5956 362.789 21.3091 362.789 25.6008ZM330.831 25.6008C330.831 28.9237 331.289 31.7987 332.206 34.2258C333.133 36.6425 334.56 38.5122 336.476 39.83C338.393 41.1372 340.836 41.7883 343.81 41.7883C346.82 41.7883 349.279 41.1372 351.185 39.83C353.086 38.5122 354.487 36.6425 355.393 34.2258C356.294 31.7987 356.747 28.9237 356.747 25.6008C356.747 20.5487 355.716 16.5956 353.664 13.7466C351.607 10.9029 348.351 9.47579 343.893 9.47579C340.904 9.47579 338.445 10.132 336.518 11.4341C334.601 12.7258 333.169 14.5747 332.226 16.9758C331.294 19.382 330.831 22.257 330.831 25.6008Z" fill="#4BA66A" fill-opacity="0.4"/>
<path d="M404.132 5.16333L389.611 46.1425H383.632L369.111 5.16333H375.049L384.174 31.5175C384.507 32.4237 384.819 33.3873 385.111 34.4133C385.413 35.429 385.7 36.4446 385.965 37.455C386.226 38.455 386.444 39.3821 386.611 40.2258C386.778 39.3821 386.986 38.455 387.236 37.455C387.486 36.4446 387.767 35.4237 388.09 34.3925C388.408 33.3508 388.726 32.3665 389.049 31.4342L398.132 5.16333H404.132Z" fill="#4BA66A" fill-opacity="0.4"/>
<path d="M52.375 0.645752L41.5417 41.6249H35.4583L27.9792 15.5416C27.7708 14.8645 27.5625 14.1197 27.3542 13.3124C27.1563 12.5103 26.9583 11.7083 26.75 10.9166C26.5521 10.1249 26.3854 9.41138 26.25 8.77075C26.125 8.13533 26.0313 7.64575 25.9792 7.31242C25.9479 7.64575 25.875 8.12492 25.75 8.74992C25.625 9.37492 25.4792 10.0833 25.3125 10.8749C25.1458 11.6562 24.9583 12.453 24.75 13.2708C24.5417 14.078 24.3385 14.8489 24.1458 15.5833L16.8125 41.6249H10.7708L0 0.645752H5.85417L12.1042 25.4999C12.3125 26.3228 12.5104 27.1614 12.7083 28.0208C12.901 28.8697 13.0833 29.7187 13.25 30.5624C13.4271 31.4114 13.5833 32.2395 13.7083 33.0416C13.8333 33.8333 13.9479 34.5833 14.0625 35.2916C14.1562 34.5572 14.2812 33.7812 14.4375 32.9583C14.5885 32.1249 14.75 31.2812 14.9167 30.4166C15.0938 29.5572 15.2917 28.7083 15.5 27.8749C15.7083 27.0312 15.9219 26.2239 16.1458 25.4583L23.1667 0.645752H28.8958L36.1667 25.5833C36.3854 26.3749 36.6042 27.203 36.8125 28.0624C37.0313 28.927 37.2344 29.7864 37.4167 30.6458C37.5938 31.4947 37.7552 32.3124 37.8958 33.1041C38.0313 33.8853 38.1563 34.6145 38.2708 35.2916C38.3958 34.3645 38.5521 33.3541 38.75 32.2708C38.9583 31.177 39.1875 30.052 39.4375 28.8958C39.6979 27.7447 39.9635 26.6041 40.2292 25.4791L46.4792 0.645752H52.375Z" fill="#4BA66A"/>
<path d="M97.3113 21.0833C97.3113 24.2396 96.9051 27.1146 96.103 29.7083C95.3113 32.2917 94.1238 34.5156 92.5405 36.375C90.9572 38.2396 88.9832 39.6771 86.6238 40.6875C84.2592 41.6875 81.4988 42.1875 78.3322 42.1875C75.1238 42.1875 72.3217 41.6875 69.9363 40.6875C67.5613 39.6771 65.5874 38.2292 64.0197 36.3542C62.4467 34.4792 61.2749 32.2448 60.4988 29.6458C59.7176 27.0521 59.3322 24.1771 59.3322 21.0208C59.3322 16.8125 60.0197 13.1354 61.3947 9.97917C62.7801 6.8125 64.8947 4.36458 67.728 2.625C70.5613 0.875 74.1238 0 78.4155 0C82.5665 0 86.0457 0.869792 88.853 2.60417C91.6551 4.34375 93.7697 6.78646 95.1863 9.9375C96.603 13.0781 97.3113 16.7917 97.3113 21.0833ZM65.353 21.0833C65.353 24.4063 65.8113 27.2813 66.728 29.7083C67.6551 32.125 69.0822 33.9948 70.9988 35.3125C72.9155 36.6198 75.3582 37.2708 78.3322 37.2708C81.3426 37.2708 83.8009 36.6198 85.7072 35.3125C87.6082 33.9948 89.0092 32.125 89.9155 29.7083C90.8165 27.2813 91.2697 24.4063 91.2697 21.0833C91.2697 16.0313 90.2384 12.0781 88.1863 9.22917C86.129 6.38542 82.8738 4.95833 78.4155 4.95833C75.4259 4.95833 72.9676 5.61458 71.0405 6.91667C69.1238 8.20833 67.6915 10.0573 66.7488 12.4583C65.8165 14.8646 65.353 17.7396 65.353 21.0833Z" fill="#4BA66A"/>
<path d="M142.259 41.6249H135.363L114.154 8.04159H113.925C113.977 9.05721 114.04 10.1666 114.113 11.3749C114.196 12.5728 114.259 13.828 114.3 15.1458C114.342 16.4687 114.373 17.802 114.404 19.1458V41.6249H109.134V0.645752H115.967L137.113 34.0624H137.3C137.259 33.2291 137.206 32.2083 137.154 30.9999C137.097 29.7916 137.05 28.5103 137.009 27.1458C136.967 25.7864 136.946 24.4999 136.946 23.2916V0.645752H142.259V41.6249Z" fill="#4BA66A"/>
<path d="M179.122 41.6249H156.101V0.645752H179.122V5.56242H161.851V17.7708H178.08V22.6458H161.851V36.6666H179.122V41.6249Z" fill="#4BA66A"/>
<path d="M208.715 41.6249V0.645752H214.465V41.6249H208.715Z" fill="#4BA66A"/>
<path d="M261.503 41.6249H254.607L233.399 8.04159H233.17C233.222 9.05721 233.284 10.1666 233.357 11.3749C233.441 12.5728 233.503 13.828 233.545 15.1458C233.587 16.4687 233.618 17.802 233.649 19.1458V41.6249H228.378V0.645752H235.212L256.357 34.0624H256.545C256.503 33.2291 256.451 32.2083 256.399 30.9999C256.342 29.7916 256.295 28.5103 256.253 27.1458C256.212 25.7864 256.191 24.4999 256.191 23.2916V0.645752H261.503V41.6249Z" fill="#4BA66A"/>
<path d="M308.471 41.6249H301.575L280.367 8.04159H280.137C280.189 9.05721 280.252 10.1666 280.325 11.3749C280.408 12.5728 280.471 13.828 280.512 15.1458C280.554 16.4687 280.585 17.802 280.617 19.1458V41.6249H275.346V0.645752H282.179L303.325 34.0624H303.512C303.471 33.2291 303.419 32.2083 303.367 30.9999C303.309 29.7916 303.262 28.5103 303.221 27.1458C303.179 25.7864 303.158 24.4999 303.158 23.2916V0.645752H308.471V41.6249Z" fill="#4BA66A"/>
<path d="M358.271 21.0833C358.271 24.2396 357.865 27.1146 357.063 29.7083C356.271 32.2917 355.084 34.5156 353.501 36.375C351.917 38.2396 349.943 39.6771 347.584 40.6875C345.219 41.6875 342.459 42.1875 339.292 42.1875C336.084 42.1875 333.282 41.6875 330.896 40.6875C328.521 39.6771 326.547 38.2292 324.98 36.3542C323.407 34.4792 322.235 32.2448 321.459 29.6458C320.678 27.0521 320.292 24.1771 320.292 21.0208C320.292 16.8125 320.98 13.1354 322.355 9.97917C323.74 6.8125 325.855 4.36458 328.688 2.625C331.521 0.875 335.084 0 339.376 0C343.527 0 347.006 0.869792 349.813 2.60417C352.615 4.34375 354.73 6.78646 356.146 9.9375C357.563 13.0781 358.271 16.7917 358.271 21.0833ZM326.313 21.0833C326.313 24.4063 326.771 27.2813 327.688 29.7083C328.615 32.125 330.042 33.9948 331.959 35.3125C333.876 36.6198 336.318 37.2708 339.292 37.2708C342.303 37.2708 344.761 36.6198 346.667 35.3125C348.568 33.9948 349.969 32.125 350.876 29.7083C351.777 27.2813 352.23 24.4063 352.23 21.0833C352.23 16.0313 351.198 12.0781 349.146 9.22917C347.089 6.38542 343.834 4.95833 339.376 4.95833C336.386 4.95833 333.928 5.61458 332.001 6.91667C330.084 8.20833 328.652 10.0573 327.709 12.4583C326.777 14.8646 326.313 17.7396 326.313 21.0833Z" fill="#4BA66A"/>
<path d="M399.615 0.645752L385.094 41.6249H379.115L364.594 0.645752H370.531L379.656 26.9999C379.99 27.9062 380.302 28.8697 380.594 29.8958C380.896 30.9114 381.182 31.927 381.448 32.9374C381.708 33.9374 381.927 34.8645 382.094 35.7083C382.26 34.8645 382.469 33.9374 382.719 32.9374C382.969 31.927 383.25 30.9062 383.573 29.8749C383.891 28.8333 384.208 27.8489 384.531 26.9166L393.615 0.645752H399.615Z" fill="#4BA66A"/>
</svg>
